<?xml version="1.0" encoding="UTF-8" standalone="no"?>
<!-- Created with Inkscape (http://www.inkscape.org/) -->
<svg
   xmlns:dc="http://purl.org/dc/elements/1.1/"
   xmlns:cc="http://creativecommons.org/ns#"
   xmlns:rdf="http://www.w3.org/1999/02/22-rdf-syntax-ns#"
   xmlns:svg="http://www.w3.org/2000/svg"
   xmlns="http://www.w3.org/2000/svg"
   xmlns:xlink="http://www.w3.org/1999/xlink"
   xmlns:sodipodi="http://sodipodi.sourceforge.net/DTD/sodipodi-0.dtd"
   xmlns:inkscape="http://www.inkscape.org/namespaces/inkscape"
   width="128"
   height="128"
   id="svg2833"
   sodipodi:version="0.32"
   inkscape:version="0.45+devel"
   version="1.0"
   sodipodi:docname="startsyslog.svg"
   inkscape:output_extension="org.inkscape.output.svg.inkscape">
  <defs
     id="defs2835">
    <inkscape:perspective
       sodipodi:type="inkscape:persp3d"
       id="perspective2750"
       inkscape:vp_x="-50 : 600 : 1"
       inkscape:vp_y="0 : 1000 : 0"
       inkscape:vp_z="700 : 600 : 1"
       inkscape:persp3d-origin="300 : 400 : 1" />
    <inkscape:perspective
       sodipodi:type="inkscape:persp3d"
       id="perspective172"
       inkscape:vp_x="-50 : 600 : 1"
       inkscape:vp_y="0 : 1000 : 0"
       inkscape:vp_z="700 : 600 : 1"
       inkscape:persp3d-origin="300 : 400 : 1" />
    <inkscape:perspective
       sodipodi:type="inkscape:persp3d"
       id="perspective2559"
       inkscape:vp_x="-50 : 600 : 1"
       inkscape:vp_y="0 : 1000 : 0"
       inkscape:vp_z="700 : 600 : 1"
       inkscape:persp3d-origin="300 : 400 : 1" />
    <inkscape:perspective
       sodipodi:type="inkscape:persp3d"
       inkscape:vp_x="-50 : 600 : 1"
       inkscape:vp_y="0 : 1000 : 0"
       inkscape:vp_z="700 : 600 : 1"
       inkscape:persp3d-origin="300 : 400 : 1"
       id="perspective84" />
    <linearGradient
       id="linearGradient6740">
      <stop
         style="stop-color:#004d00;stop-opacity:0;"
         offset="0"
         id="stop6742" />
      <stop
         id="stop6748"
         offset="0.5"
         style="stop-color:#004d00;stop-opacity:1;" />
      <stop
         style="stop-color:#004d00;stop-opacity:0;"
         offset="1"
         id="stop6744" />
    </linearGradient>
    <linearGradient
       inkscape:collect="always"
       xlink:href="#linearGradient6740"
       id="linearGradient6930"
       gradientUnits="userSpaceOnUse"
       gradientTransform="translate(20.000035,-56.000003)"
       x1="102"
       y1="118"
       x2="102"
       y2="65.932846" />
    <linearGradient
       gradientTransform="matrix(0,1,-1,0,-39.9985,140.0029)"
       y2="-383.9975"
       x2="-23.516129"
       y1="-383.9971"
       x1="-84.002403"
       gradientUnits="userSpaceOnUse"
       id="linearGradient3711">
      <stop
         id="stop3713"
         style="stop-color:white;stop-opacity:1;"
         offset="0" />
      <stop
         id="stop3715"
         style="stop-color:white;stop-opacity:0;"
         offset="1" />
    </linearGradient>
    <clipPath
       clipPathUnits="userSpaceOnUse"
       id="clipPath5163">
      <circle
         sodipodi:ry="36"
         sodipodi:rx="36"
         sodipodi:cy="92"
         sodipodi:cx="343.99899"
         style="fill:url(#linearGradient5167);fill-opacity:1"
         r="36"
         rx="8.0010004"
         cx="343.99899"
         cy="92"
         ry="8.0010004"
         id="circle5165" />
    </clipPath>
    <linearGradient
       id="linearGradient4296">
      <stop
         id="stop4298"
         offset="0"
         style="stop-color:#00ff00;stop-opacity:1" />
      <stop
         id="stop4300"
         offset="1"
         style="stop-color:#006500;stop-opacity:1" />
    </linearGradient>
    <linearGradient
       inkscape:collect="always"
       xlink:href="#linearGradient4296"
       id="linearGradient4272"
       gradientUnits="userSpaceOnUse"
       x1="328.12448"
       y1="120.81158"
       x2="336.98077"
       y2="87.759453" />
    <linearGradient
       gradientTransform="matrix(0,1,-1,0,-39.9985,140.0029)"
       y2="-383.9971"
       x2="-12.0029"
       y1="-383.9971"
       x1="-84.002403"
       gradientUnits="userSpaceOnUse"
       id="linearGradient4770">
      <stop
         id="stop4772"
         style="stop-color:#e5ff00;stop-opacity:1"
         offset="0" />
      <stop
         id="stop4774"
         style="stop-color:#bff500;stop-opacity:0;"
         offset="1" />
    </linearGradient>
    <radialGradient
       inkscape:collect="always"
       xlink:href="#linearGradient4770"
       id="radialGradient8920"
       gradientUnits="userSpaceOnUse"
       cx="343.99899"
       cy="92"
       fx="343.99899"
       fy="92"
       r="36" />
    <linearGradient
       gradientTransform="matrix(0,1,-1,0,-39.9985,140.0029)"
       y2="-383.9971"
       x2="-12.0029"
       y1="-383.9971"
       x1="-84.002403"
       gradientUnits="userSpaceOnUse"
       id="linearGradient5958">
      <stop
         id="stop5960"
         style="stop-color:#008c00;stop-opacity:1"
         offset="0" />
      <stop
         id="stop5962"
         style="stop-color:#00bf00;stop-opacity:1"
         offset="1" />
    </linearGradient>
    <linearGradient
       inkscape:collect="always"
       xlink:href="#linearGradient5958"
       id="linearGradient8916"
       gradientUnits="userSpaceOnUse"
       gradientTransform="matrix(0,1,-1,0,-39.9985,140.0029)"
       x1="-86.120354"
       y1="-381.09921"
       x2="-56.357521"
       y2="-373.1243" />
    <linearGradient
       id="linearGradient3291">
      <stop
         id="stop3293"
         offset="0"
         style="stop-color:#000000;stop-opacity:1;" />
      <stop
         style="stop-color:#000000;stop-opacity:0.49803922;"
         offset="0.60830319"
         id="stop7512" />
      <stop
         id="stop3295"
         offset="1"
         style="stop-color:#000000;stop-opacity:0;" />
    </linearGradient>
    <linearGradient
       inkscape:collect="always"
       id="linearGradient7441">
      <stop
         style="stop-color:#808080;stop-opacity:1;"
         offset="0"
         id="stop7443" />
      <stop
         style="stop-color:#808080;stop-opacity:0;"
         offset="1"
         id="stop7445" />
    </linearGradient>
    <linearGradient
       id="linearGradient4651">
      <stop
         id="stop4653"
         offset="0"
         style="stop-color:#ffffff;stop-opacity:1;" />
      <stop
         style="stop-color:#ffffff;stop-opacity:1;"
         offset="0.80788177"
         id="stop4661" />
      <stop
         id="stop4655"
         offset="1"
         style="stop-color:#ffffff;stop-opacity:0;" />
    </linearGradient>
    <linearGradient
       id="linearGradient3269">
      <stop
         id="stop3271"
         offset="0"
         style="stop-color:#979797;stop-opacity:0.17454545;" />
      <stop
         id="stop3273"
         offset="1"
         style="stop-color:#979797;stop-opacity:0;" />
    </linearGradient>
    <linearGradient
       inkscape:collect="always"
       id="linearGradient9274-166-826-779-471-655-331-795">
      <stop
         style="stop-color:#ffffff;stop-opacity:1;"
         offset="0"
         id="stop20631" />
      <stop
         style="stop-color:#ffffff;stop-opacity:0;"
         offset="1"
         id="stop20633" />
    </linearGradient>
    <linearGradient
       inkscape:collect="always"
       id="linearGradient9274-828-181-250-454-259-451-773">
      <stop
         style="stop-color:#ffffff;stop-opacity:1;"
         offset="0"
         id="stop20625" />
      <stop
         style="stop-color:#ffffff;stop-opacity:0;"
         offset="1"
         id="stop20627" />
    </linearGradient>
    <linearGradient
       id="linearGradient2315-800-211-797-571-358-772-92">
      <stop
         id="stop20619"
         offset="0"
         style="stop-color:#ffffff;stop-opacity:1;" />
      <stop
         id="stop20621"
         offset="1"
         style="stop-color:#b1b1b1;stop-opacity:1;" />
    </linearGradient>
    <radialGradient
       inkscape:collect="always"
       xlink:href="#linearGradient2315-800-211-797-571-358-772-92"
       id="radialGradient7279"
       gradientUnits="userSpaceOnUse"
       gradientTransform="matrix(1.0844921,6.2520507e-3,-3.8162024e-3,0.6470763,530.16451,-46.253823)"
       cx="-431.58975"
       cy="188.62517"
       fx="-431.58975"
       fy="188.62517"
       r="77.784615" />
    <radialGradient
       inkscape:collect="always"
       xlink:href="#linearGradient9274-828-181-250-454-259-451-773"
       id="radialGradient7281"
       gradientUnits="userSpaceOnUse"
       gradientTransform="matrix(1.6858403,0.4002038,-2.7865635e-2,0.5665917,792.21465,154.25626)"
       cx="-419.27335"
       cy="37.536674"
       fx="-419.27335"
       fy="37.536674"
       r="77.78125" />
    <radialGradient
       inkscape:collect="always"
       xlink:href="#linearGradient9274-166-826-779-471-655-331-795"
       id="radialGradient7283"
       gradientUnits="userSpaceOnUse"
       gradientTransform="matrix(1.6858403,0.4002038,-2.7865635e-2,0.5665917,792.21465,154.25626)"
       cx="-419.27335"
       cy="37.536674"
       fx="-419.27335"
       fy="37.536674"
       r="77.78125" />
    <radialGradient
       inkscape:collect="always"
       xlink:href="#linearGradient7441"
       id="radialGradient7449"
       cx="48.328632"
       cy="55.719162"
       fx="48.328632"
       fy="55.719162"
       r="43.864159"
       gradientTransform="matrix(1.8342675,-1.401395e-3,1.4203725e-3,1.8140651,-40.398148,-45.291299)"
       gradientUnits="userSpaceOnUse" />
    <linearGradient
       inkscape:collect="always"
       xlink:href="#linearGradient3711"
       id="linearGradient7556"
       gradientUnits="userSpaceOnUse"
       gradientTransform="matrix(0,0.7388168,-0.7388168,0,-4.912835,121.52441)"
       x1="-80.00296"
       y1="-131.93112"
       x2="-45.096584"
       y2="-131.93112" />
    <filter
       inkscape:collect="always"
       id="filter7576">
      <feGaussianBlur
         inkscape:collect="always"
         stdDeviation="1.5079688"
         id="feGaussianBlur7578" />
    </filter>
    <mask
       maskUnits="userSpaceOnUse"
       id="mask2528">
      <text
         transform="matrix(1.1319012,0.2063073,7.9134205e-3,0.8849117,0,0)"
         id="text2530"
         y="82.389503"
         x="15.337832"
         style="font-size:189.72338867px;font-style:normal;font-variant:normal;font-weight:bold;font-stretch:normal;fill:#cccccc;fill-opacity:1;stroke:none;stroke-width:6;stroke-linecap:butt;stroke-linejoin:miter;stroke-miterlimit:4;stroke-dasharray:none;stroke-opacity:1;font-family:Sidux;-inkscape-font-specification:Sidux Bold"
         xml:space="preserve"><tspan
           y="82.389503"
           x="15.337832"
           id="tspan2532"
           sodipodi:role="line">s</tspan></text>
    </mask>
    <linearGradient
       y2="62.643799"
       x2="110.38672"
       y1="62.643799"
       x1="85.455536"
       gradientTransform="translate(8.08057,52.025879)"
       gradientUnits="userSpaceOnUse"
       id="linearGradient3344"
       xlink:href="#linearGradient3206"
       inkscape:collect="always" />
    <linearGradient
       y2="62.643799"
       x2="110.38672"
       y1="62.643799"
       x1="85.455536"
       gradientTransform="translate(-0.1684592,52.025879)"
       gradientUnits="userSpaceOnUse"
       id="linearGradient3340"
       xlink:href="#linearGradient3206"
       inkscape:collect="always" />
    <linearGradient
       y2="62.643799"
       x2="110.38672"
       y1="62.643799"
       x1="85.455536"
       gradientTransform="translate(-0.2636719,20.025879)"
       gradientUnits="userSpaceOnUse"
       id="linearGradient3336"
       xlink:href="#linearGradient3206"
       inkscape:collect="always" />
    <linearGradient
       y2="62.643799"
       x2="110.38672"
       y1="62.643799"
       x1="85.455536"
       gradientTransform="translate(0,2.5878906e-2)"
       gradientUnits="userSpaceOnUse"
       id="linearGradient3311"
       xlink:href="#linearGradient3206"
       inkscape:collect="always" />
    <linearGradient
       y2="62.643799"
       x2="110.38672"
       y1="62.643799"
       x1="85.455536"
       gradientTransform="translate(1.221e-2,52.025879)"
       gradientUnits="userSpaceOnUse"
       id="linearGradient3294"
       xlink:href="#linearGradient3206"
       inkscape:collect="always" />
    <linearGradient
       y2="62.643799"
       x2="110.38672"
       y1="62.643799"
       x1="85.455536"
       gradientTransform="translate(-0.2636719,12.025879)"
       gradientUnits="userSpaceOnUse"
       id="linearGradient3270"
       xlink:href="#linearGradient3206"
       inkscape:collect="always" />
    <linearGradient
       y2="62.643799"
       x2="110.38672"
       y1="62.643799"
       x1="85.455536"
       gradientTransform="translate(-0.30518,56.025879)"
       gradientUnits="userSpaceOnUse"
       id="linearGradient3266"
       xlink:href="#linearGradient3206"
       inkscape:collect="always" />
    <filter
       id="filter2770"
       inkscape:collect="always">
      <feGaussianBlur
         id="feGaussianBlur2772"
         stdDeviation="2.0786429"
         inkscape:collect="always" />
    </filter>
    <linearGradient
       gradientUnits="userSpaceOnUse"
       y2="99.254974"
       x2="91.228737"
       y1="106.41443"
       x1="98.617439"
       id="linearGradient10213"
       xlink:href="#linearGradient10207"
       inkscape:collect="always" />
    <clipPath
       id="clipPath7084"
       clipPathUnits="userSpaceOnUse">
      <path
         id="path7086"
         d="M 72,88 L 40,120 L 32,120 L 32,80 L 72,80 L 72,88 z"
         style="fill:#000000;fill-opacity:1;fill-rule:evenodd;stroke:none;stroke-width:1px;stroke-linecap:butt;stroke-linejoin:miter;stroke-opacity:1" />
    </clipPath>
    <filter
       id="filter6697"
       height="1.3839999"
       y="-0.19199999"
       width="1.3839999"
       x="-0.19200002"
       inkscape:collect="always">
      <feGaussianBlur
         id="feGaussianBlur6699"
         stdDeviation="1.9447689"
         inkscape:collect="always" />
    </filter>
    <radialGradient
       gradientUnits="userSpaceOnUse"
       r="139.55859"
       cy="112.3047"
       cx="102"
       id="XMLID_8_">
      <stop
         id="stop41"
         style="stop-color:#b7b8b9;stop-opacity:1;"
         offset="0" />
      <stop
         id="stop47"
         style="stop-color:#ECECEC"
         offset="0.18851049" />
      <stop
         id="stop49"
         style="stop-color:#FAFAFA"
         offset="0.25718147" />
      <stop
         id="stop51"
         style="stop-color:#FFFFFF"
         offset="0.30111277" />
      <stop
         id="stop53"
         style="stop-color:#FAFAFA"
         offset="0.5313" />
      <stop
         id="stop55"
         style="stop-color:#EBECEC"
         offset="0.8449" />
      <stop
         id="stop57"
         style="stop-color:#E1E2E3"
         offset="1" />
    </radialGradient>
    <linearGradient
       id="linearGradient10207">
      <stop
         id="stop10209"
         offset="0"
         style="stop-color:#a2a2a2;stop-opacity:1;" />
      <stop
         id="stop10211"
         offset="1"
         style="stop-color:#ffffff;stop-opacity:1;" />
    </linearGradient>
    <linearGradient
       id="linearGradient3206"
       inkscape:collect="always">
      <stop
         id="stop2466"
         offset="0"
         style="stop-color:#000000;stop-opacity:1;" />
      <stop
         id="stop2468"
         offset="1"
         style="stop-color:#000000;stop-opacity:0;" />
    </linearGradient>
    <inkscape:perspective
       inkscape:persp3d-origin="300 : 400 : 1"
       inkscape:vp_z="700 : 600 : 1"
       inkscape:vp_y="0 : 1000 : 0"
       inkscape:vp_x="-50 : 600 : 1"
       id="perspective6952"
       sodipodi:type="inkscape:persp3d" />
    <linearGradient
       inkscape:collect="always"
       xlink:href="#linearGradient3206"
       id="linearGradient7011"
       gradientUnits="userSpaceOnUse"
       gradientTransform="translate(12.65029,24.025879)"
       x1="85.455536"
       y1="62.643799"
       x2="110.38672"
       y2="62.643799" />
    <linearGradient
       inkscape:collect="always"
       xlink:href="#linearGradient3206"
       id="linearGradient7021"
       gradientUnits="userSpaceOnUse"
       gradientTransform="translate(12.608782,60.025879)"
       x1="85.455536"
       y1="62.643799"
       x2="110.38672"
       y2="62.643799" />
    <linearGradient
       inkscape:collect="always"
       xlink:href="#linearGradient3206"
       id="linearGradient7025"
       gradientUnits="userSpaceOnUse"
       gradientTransform="translate(12.65029,16.025879)"
       x1="85.455536"
       y1="62.643799"
       x2="110.38672"
       y2="62.643799" />
    <linearGradient
       inkscape:collect="always"
       xlink:href="#linearGradient3206"
       id="linearGradient7029"
       gradientUnits="userSpaceOnUse"
       gradientTransform="translate(12.926172,56.025879)"
       x1="85.455536"
       y1="62.643799"
       x2="110.38672"
       y2="62.643799" />
    <linearGradient
       inkscape:collect="always"
       xlink:href="#linearGradient3206"
       id="linearGradient7033"
       gradientUnits="userSpaceOnUse"
       gradientTransform="translate(12.745503,56.025879)"
       x1="85.455536"
       y1="62.643799"
       x2="110.38672"
       y2="62.643799" />
    <linearGradient
       inkscape:collect="always"
       xlink:href="#linearGradient3206"
       id="linearGradient7037"
       gradientUnits="userSpaceOnUse"
       gradientTransform="translate(20.994532,56.025879)"
       x1="85.455536"
       y1="62.643799"
       x2="110.38672"
       y2="62.643799" />
    <linearGradient
       inkscape:collect="always"
       xlink:href="#linearGradient3206"
       id="linearGradient7041"
       gradientUnits="userSpaceOnUse"
       gradientTransform="translate(12.39551,4.0634857)"
       x1="85.455536"
       y1="62.643799"
       x2="110.38672"
       y2="62.643799" />
    <radialGradient
       inkscape:collect="always"
       xlink:href="#XMLID_8_"
       id="radialGradient7044"
       gradientUnits="userSpaceOnUse"
       gradientTransform="matrix(1,0,0,0.9996653,12.395512,4.0406237)"
       cx="102"
       cy="112.3047"
       r="139.55859" />
    <radialGradient
       inkscape:collect="always"
       xlink:href="#linearGradient7441"
       id="radialGradient2762"
       gradientUnits="userSpaceOnUse"
       gradientTransform="matrix(1.8342675,-1.401395e-3,1.4203725e-3,1.8140651,-40.398148,-45.291299)"
       cx="48.328632"
       cy="55.719162"
       fx="48.328632"
       fy="55.719162"
       r="43.864159" />
    <radialGradient
       inkscape:collect="always"
       xlink:href="#linearGradient2315-800-211-797-571-358-772-92"
       id="radialGradient2764"
       gradientUnits="userSpaceOnUse"
       gradientTransform="matrix(1.0844921,6.2520507e-3,-3.8162024e-3,0.6470763,530.16451,-46.253823)"
       cx="-431.58975"
       cy="188.62517"
       fx="-431.58975"
       fy="188.62517"
       r="77.784615" />
    <radialGradient
       inkscape:collect="always"
       xlink:href="#linearGradient9274-828-181-250-454-259-451-773"
       id="radialGradient2766"
       gradientUnits="userSpaceOnUse"
       gradientTransform="matrix(1.6858403,0.4002038,-2.7865635e-2,0.5665917,792.21465,154.25626)"
       cx="-419.27335"
       cy="37.536674"
       fx="-419.27335"
       fy="37.536674"
       r="77.78125" />
    <radialGradient
       inkscape:collect="always"
       xlink:href="#linearGradient9274-166-826-779-471-655-331-795"
       id="radialGradient2768"
       gradientUnits="userSpaceOnUse"
       gradientTransform="matrix(1.6858403,0.4002038,-2.7865635e-2,0.5665917,792.21465,154.25626)"
       cx="-419.27335"
       cy="37.536674"
       fx="-419.27335"
       fy="37.536674"
       r="77.78125" />
    <linearGradient
       inkscape:collect="always"
       xlink:href="#linearGradient3206"
       id="linearGradient2770"
       gradientUnits="userSpaceOnUse"
       gradientTransform="translate(12.926172,56.025879)"
       x1="85.455536"
       y1="62.643799"
       x2="110.38672"
       y2="62.643799" />
    <linearGradient
       inkscape:collect="always"
       xlink:href="#linearGradient3206"
       id="linearGradient2774"
       gradientUnits="userSpaceOnUse"
       gradientTransform="translate(12.40772,56.063487)"
       x1="85.455536"
       y1="62.643799"
       x2="110.38672"
       y2="62.643799" />
    <radialGradient
       inkscape:collect="always"
       xlink:href="#linearGradient7441"
       id="radialGradient2786"
       gradientUnits="userSpaceOnUse"
       gradientTransform="matrix(1.8342675,-1.401395e-3,1.4203725e-3,1.8140651,-40.398148,-45.291299)"
       cx="48.328632"
       cy="55.719162"
       fx="48.328632"
       fy="55.719162"
       r="43.864159" />
    <mask
       maskUnits="userSpaceOnUse"
       id="mask2799">
      <path
         style="font-size:182.7288208px;font-style:normal;font-variant:normal;font-weight:bold;font-stretch:normal;fill:#cccccc;fill-opacity:1;stroke:none;stroke-width:6;stroke-linecap:butt;stroke-linejoin:miter;stroke-miterlimit:4;stroke-opacity:1;font-family:Sidux"
         d="M 19.522004,57.522879 L 19.675952,74.738007 C 19.685725,75.83103 20.389661,76.504954 21.787763,76.759781 L 92.042279,89.564803 C 96.935549,90.456681 100.91182,90.25386 103.97111,88.956355 C 107.02924,87.549519 109.38549,85.687376 111.03984,83.369919 C 114.07451,79.339834 115.56892,74.756191 115.52308,69.618979 C 115.4702,63.716663 114.79756,58.73804 113.50515,54.683096 C 112.21256,50.628194 110.29825,47.278367 107.76221,44.633603 C 105.22502,41.8796 101.92482,39.641224 97.86162,37.91847 C 93.938068,36.221275 89.180135,34.863006 83.587807,33.84366 L 55.276285,28.683427 C 48.984805,27.536757 45.819535,24.777353 45.780465,20.405207 C 45.743294,16.251776 48.870444,14.748391 55.161924,15.895048 L 108.42953,25.603931 C 109.82753,25.858807 110.5217,25.439709 110.51201,24.346635 L 110.35953,7.2954638 C 110.34869,6.0932076 109.64426,5.3646321 108.24626,5.1097351 L 61.899246,-3.3377571 C 54.489281,-4.6882559 48.201259,-5.4524152 43.035162,-5.6302373 C 32.561128,-6.2297242 25.815539,-3.5307484 22.798375,2.4666967 C 21.15193,5.6586517 20.353635,10.0418 20.403487,15.616155 C 20.475816,23.704584 22.628678,30.317052 26.86208,35.45358 C 28.979745,38.131208 31.792069,40.444347 35.299062,42.393006 C 38.94583,44.367215 43.355705,45.825731 48.528699,46.768558 L 80.615091,52.616822 C 86.487042,53.687115 89.442597,56.408295 89.481767,60.78037 C 89.528613,66.026894 86.616065,68.115014 80.744114,67.044736 L 21.604492,56.265583 C 20.206389,56.010776 19.512228,56.429875 19.522004,57.522879"
         id="path2801" />
    </mask>
    <clipPath
       clipPathUnits="userSpaceOnUse"
       id="clipPath3545">
      <path
         style="opacity:1;fill:#ffffff;fill-opacity:1"
         d="M 28.395507,12.037608 L 28.395507,124.0376 C 28.395507,124.0376 91.541927,124.0376 91.541927,124.0376 L 124.39551,91.184024 L 124.39551,12.037608 L 28.395507,12.037608 z"
         id="path3547"
         sodipodi:nodetypes="cccccc" />
    </clipPath>
  </defs>
  <sodipodi:namedview
     id="base"
     pagecolor="#ffffff"
     bordercolor="#666666"
     borderopacity="1.0"
     gridtolerance="10000"
     guidetolerance="10"
     objecttolerance="10"
     inkscape:pageopacity="0.0"
     inkscape:pageshadow="2"
     inkscape:zoom="2.9610096"
     inkscape:cx="92.977181"
     inkscape:cy="44.106818"
     inkscape:document-units="px"
     inkscape:current-layer="layer1"
     showgrid="true"
     inkscape:window-width="1455"
     inkscape:window-height="810"
     inkscape:window-x="0"
     inkscape:window-y="0"
     showguides="true"
     inkscape:guide-bbox="true">
    <inkscape:grid
       type="axonomgrid"
       id="grid2843"
       units="px"
       spacingy="4px"
       empspacing="4"
       visible="false"
       enabled="false" />
    <inkscape:grid
       type="xygrid"
       id="grid2845"
       spacingx="0.5px"
       spacingy="0.5px"
       empspacing="8" />
  </sodipodi:namedview>
  <metadata
     id="metadata2838">
    <rdf:RDF>
      <cc:Work
         rdf:about="">
        <dc:format>image/svg+xml</dc:format>
        <dc:type
           rdf:resource="http://purl.org/dc/dcmitype/StillImage" />
        <dc:title></dc:title>
        <dc:date></dc:date>
        <dc:creator>
          <cc:Agent>
            <dc:title></dc:title>
          </cc:Agent>
        </dc:creator>
        <dc:rights>
          <cc:Agent>
            <dc:title></dc:title>
          </cc:Agent>
        </dc:rights>
        <dc:publisher>
          <cc:Agent>
            <dc:title></dc:title>
          </cc:Agent>
        </dc:publisher>
        <dc:identifier></dc:identifier>
        <dc:source></dc:source>
        <dc:relation></dc:relation>
        <dc:language></dc:language>
        <dc:subject>
          <rdf:Bag />
        </dc:subject>
        <dc:coverage></dc:coverage>
        <dc:description></dc:description>
        <dc:contributor>
          <cc:Agent>
            <dc:title></dc:title>
          </cc:Agent>
        </dc:contributor>
        <cc:license
           rdf:resource="" />
      </cc:Work>
    </rdf:RDF>
  </metadata>
  <g
     inkscape:label="Layer 1"
     inkscape:groupmode="layer"
     id="layer1">
    <g
       id="g3479">
      <path
         style="font-size:182.7288208px;font-style:normal;font-variant:normal;font-weight:bold;font-stretch:normal;opacity:0.56652359;fill:#000000;fill-opacity:1;stroke:none;stroke-width:12;stroke-linecap:butt;stroke-linejoin:miter;stroke-miterlimit:4;stroke-dasharray:none;stroke-opacity:1;filter:url(#filter7576);font-family:Sidux"
         d="M 43.78125,4.09375 C 37.25218,4.093849 31.604411,4.501882 26.71875,5.4375 C 16.409774,7.107392 8.310984,13.077468 5,22.21875 C 3.21546,27.036311 2.5,32.640853 2.5,39.21875 C 2.5,48.892083 4.42502,57.063911 9.03125,63.28125 L 9.03125,63.3125 C 14.220957,70.266057 22.639004,73.781294 32.09375,73.78125 L 59.1875,73.78125 C 60.029557,73.781256 60.444424,73.88314 60.625,73.9375 C 60.650779,74.078363 60.687493,74.359219 60.6875,74.9375 C 60.687478,76.92984 60.256622,77.502149 60.3125,77.4375 C 60.271767,77.466764 60.063087,77.531254 59.1875,77.53125 L 9.1875,77.53125 C 7.602448,77.531283 5.32614,78.027873 3.625,79.75 C 1.92386,81.472126 1.46875,83.770363 1.46875,85.375 L 1.46875,104.1875 C 1.46876,105.79213 1.92384,108.09036 3.625,109.8125 C 5.32616,111.53465 7.60243,112.03125 9.1875,112.03125 L 68.59375,112.03125 C 73.69748,112.03125 78.563066,110.70059 82.375,107.71875 L 82.4375,107.6875 L 82.5,107.625 C 85.69516,104.97845 88.25839,101.7463 90.0625,98.09375 C 93.087848,92.24666 94.593654,85.973838 94.59375,79.40625 C 94.593663,72.607372 94.091976,66.852033 92.84375,61.9375 C 91.608969,57.076752 89.642084,52.854818 86.6875,49.53125 C 83.803326,46.125056 80.036635,43.772736 75.6875,42.40625 C 71.589304,41.072817 67.051627,40.531316 61.875,40.53125 L 37.90625,40.53125 C 36.677238,40.531263 36.151757,40.35077 35.96875,40.28125 C 35.949626,40.171958 35.906247,39.959605 35.90625,39.40625 C 35.906248,39.006134 35.907304,38.951603 35.90625,38.875 C 36.148928,38.78851 36.720042,38.625017 37.90625,38.625 L 83,38.625 C 84.585157,38.625099 86.830097,38.097144 88.53125,36.375 C 90.232403,34.652857 90.718644,32.385786 90.71875,30.78125 L 90.71875,12.09375 C 90.718656,10.520784 90.313979,8.373701 88.6875,6.5625 C 87.061021,4.751298 84.684413,4.093887 83,4.09375 L 43.78125,4.09375 z M 43.78125,7.09375 L 83,7.09375 C 84.137779,7.093842 85.538964,7.523568 86.5,8.59375 C 87.461036,9.663933 87.749933,10.978127 87.75,12.09375 L 87.75,30.78125 C 87.749927,31.882776 87.404622,33.23931 86.40625,34.25 C 85.407878,35.260691 84.088151,35.593815 83,35.59375 L 37.90625,35.59375 C 35.665539,35.593782 34.425291,36.065362 33.84375,36.5625 C 33.26221,37.059636 32.906243,37.727827 32.90625,39.40625 C 32.906241,41.234242 33.313816,41.966894 33.90625,42.5 C 34.498684,43.033105 35.687635,43.531273 37.90625,43.53125 L 61.875,43.53125 C 66.828021,43.531313 71.108053,44.107184 74.8125,45.3125 C 78.701466,46.534402 81.962494,48.602628 84.46875,51.5625 C 87.010135,54.421266 88.788003,58.162474 89.9375,62.6875 C 91.093638,67.239461 91.624915,72.775043 91.625,79.40625 C 91.62491,85.502904 90.219488,91.31284 87.40625,96.75 C 85.794734,100.01262 83.491894,102.91196 80.59375,105.3125 L 80.5625,105.3125 L 80.53125,105.34375 C 77.324644,107.85208 73.214732,109 68.59375,109 L 9.1875,109 C 8.099372,109 6.748378,108.6982 5.75,107.6875 C 4.75162,106.6768 4.4375,105.28905 4.4375,104.1875 L 4.4375,85.375 C 4.4375,84.273448 4.75164,82.885682 5.75,81.875 C 6.748364,80.864317 8.099381,80.562518 9.1875,80.5625 L 59.1875,80.5625 C 61.102501,80.562508 61.969695,80.092099 62.5625,79.40625 C 63.155304,78.720401 63.656225,77.370024 63.65625,74.9375 C 63.656226,73.071828 63.272645,72.253901 62.75,71.75 C 62.227355,71.246101 61.197165,70.781269 59.1875,70.78125 L 32.09375,70.78125 C 23.287196,70.781291 16.042375,67.669954 11.4375,61.5 C 7.360832,55.997441 5.49999,48.484188 5.5,39.21875 C 5.5,32.877594 6.210815,27.605196 7.8125,23.28125 C 10.768594,15.119781 17.692876,9.990669 27.28125,8.4375 C 31.91145,7.550805 37.383423,7.093848 43.78125,7.09375 z"
         id="path7562" />
      <path
         id="text5058"
         d="M 7.4644718,82.84297 L 7.4644718,101.57981 C 7.4644704,102.76945 8.0592902,103.36427 9.248933,103.36427 L 69.028381,103.36427 C 73.192057,103.36427 76.582529,102.35308 79.19981,100.33069 C 81.816944,98.189341 83.839331,95.691098 85.266978,92.835952 C 87.884105,87.839477 89.192709,82.545581 89.192792,76.954248 C 89.192709,70.530221 88.657371,65.236325 87.586777,61.072544 C 86.51602,56.908848 84.910006,53.637339 82.768732,51.258008 C 80.627304,48.759817 77.831651,46.975357 74.381765,45.904624 C 71.050705,44.834006 67.005931,44.298668 62.247429,44.298609 L 38.157203,44.298609 C 32.803793,44.298668 30.127104,41.919389 30.127128,37.160765 C 30.127104,32.640201 32.803793,30.379885 38.157203,30.379812 L 83.482516,30.379812 C 84.672079,30.379885 85.266898,29.785066 85.266978,28.595351 L 85.266978,10.036955 C 85.266898,8.7284452 84.672079,8.0741435 83.482516,8.0740482 L 44.045925,8.0740482 C 37.740797,8.0741435 32.387419,8.4905173 27.985775,9.323171 C 19.063456,10.750832 13.293704,15.033535 10.676502,22.171291 C 9.2489297,25.978219 8.535146,30.915223 8.5351485,36.982319 C 8.535146,45.785718 10.319605,52.566663 13.888532,57.325176 C 15.672983,59.823465 18.052263,61.78637 21.026376,63.213897 C 24.119424,64.641505 27.866789,65.355289 32.268482,65.355251 L 59.570737,65.355251 C 64.56717,65.355289 67.065413,67.734568 67.065474,72.493095 C 67.065413,78.203396 64.56717,81.058531 59.570737,81.058509 L 9.248933,81.058509 C 8.0592902,81.058531 7.4644704,81.653351 7.4644718,82.84297"
         style="font-size:182.7288208px;font-style:normal;font-variant:normal;font-weight:bold;font-stretch:normal;fill:none;fill-opacity:1;stroke:#333333;stroke-width:12;stroke-linecap:butt;stroke-linejoin:miter;stroke-miterlimit:4;stroke-opacity:1;font-family:Sidux"
         transform="scale(0.9938873,1.0061503)" />
      <path
         id="text5054"
         d="M 7.4644718,82.84297 L 7.4644718,101.57981 C 7.4644704,102.76945 8.0592902,103.36427 9.248933,103.36427 L 69.028381,103.36427 C 73.192057,103.36427 76.582529,102.35308 79.19981,100.33069 C 81.816944,98.189341 83.839331,95.691098 85.266978,92.835952 C 87.884105,87.839477 89.192709,82.545581 89.192792,76.954248 C 89.192709,70.530221 88.657371,65.236325 87.586777,61.072544 C 86.51602,56.908848 84.910006,53.637339 82.768732,51.258008 C 80.627304,48.759817 77.831651,46.975357 74.381765,45.904624 C 71.050705,44.834006 67.005931,44.298668 62.247429,44.298609 L 38.157203,44.298609 C 32.803793,44.298668 30.127104,41.919389 30.127128,37.160765 C 30.127104,32.640201 32.803793,30.379885 38.157203,30.379812 L 83.482516,30.379812 C 84.672079,30.379885 85.266898,29.785066 85.266978,28.595351 L 85.266978,10.036955 C 85.266898,8.7284452 84.672079,8.0741435 83.482516,8.0740482 L 44.045925,8.0740482 C 37.740797,8.0741435 32.387419,8.4905173 27.985775,9.323171 C 19.063456,10.750832 13.293704,15.033535 10.676502,22.171291 C 9.2489297,25.978219 8.535146,30.915223 8.5351485,36.982319 C 8.535146,45.785718 10.319605,52.566663 13.888532,57.325176 C 15.672983,59.823465 18.052263,61.78637 21.026376,63.213897 C 24.119424,64.641505 27.866789,65.355289 32.268482,65.355251 L 59.570737,65.355251 C 64.56717,65.355289 67.065413,67.734568 67.065474,72.493095 C 67.065413,78.203396 64.56717,81.058531 59.570737,81.058509 L 9.248933,81.058509 C 8.0592902,81.058531 7.4644704,81.653351 7.4644718,82.84297"
         style="font-size:182.7288208px;font-style:normal;font-variant:normal;font-weight:bold;font-stretch:normal;fill:none;fill-opacity:1;stroke:url(#radialGradient2786);stroke-width:6;stroke-linecap:butt;stroke-linejoin:miter;stroke-miterlimit:4;stroke-opacity:1;font-family:Sidux"
         transform="scale(0.9938873,1.0061503)" />
      <path
         id="text7214"
         d="M 7.1782446,82.375616 L 7.1782446,101.11246 C 7.1782432,102.3021 7.7730629,102.89692 8.9627057,102.89692 L 68.742154,102.89692 C 72.905829,102.89692 76.296302,101.88573 78.913582,99.863335 C 81.530716,97.721987 83.553104,95.223744 84.98075,92.368599 C 87.597878,87.372123 88.906482,82.078227 88.906565,76.486894 C 88.906482,70.062867 88.371144,64.768971 87.30055,60.60519 C 86.229793,56.441494 84.623779,53.169985 82.482505,50.790654 C 80.341077,48.292463 77.545424,46.508004 74.095537,45.437271 C 70.764478,44.366652 66.719704,43.831315 61.961202,43.831255 L 37.870976,43.831255 C 32.517566,43.831315 29.840877,41.452035 29.840901,36.693411 C 29.840877,32.172847 32.517566,29.912532 37.870976,29.912459 L 83.196289,29.912459 C 84.385851,29.912532 84.980671,29.317712 84.98075,28.127997 L 84.98075,9.5696016 C 84.980671,8.2610914 84.385851,7.6067896 83.196289,7.6066943 L 43.759698,7.6066943 C 37.45457,7.6067896 32.101192,8.0231635 27.699548,8.8558171 C 18.777229,10.283479 13.007477,14.566181 10.390275,21.703937 C 8.9627025,25.510865 8.2489188,30.447869 8.2489213,36.514965 C 8.2489188,45.318364 10.033378,52.09931 13.602305,56.857822 C 15.386756,59.356111 17.766035,61.319016 20.740149,62.746544 C 23.833197,64.174151 27.580562,64.887935 31.982254,64.887897 L 59.28451,64.887897 C 64.280943,64.887935 66.779186,67.267214 66.779247,72.025742 C 66.779186,77.736042 64.280943,80.591177 59.28451,80.591155 L 8.9627057,80.591155 C 7.7730629,80.591177 7.1782432,81.185997 7.1782446,82.375616"
         style="font-size:182.7288208px;font-style:normal;font-variant:normal;font-weight:bold;font-stretch:normal;fill:#cccccc;fill-opacity:1;stroke:none;stroke-width:6;stroke-linecap:butt;stroke-linejoin:miter;stroke-miterlimit:4;stroke-opacity:1;font-family:Sidux"
         transform="scale(0.9938873,1.0061503)" />
      <path
         sodipodi:nodetypes="ccccccccsccscccssccccscsccccsccsccsccsccssc"
         id="path7257"
         d="M 43.952697,2.630123 C 37.470259,2.630223 31.925919,3.086568 27.234485,3.972065 C 17.519305,5.523144 10.503449,10.64535 7.508261,18.795838 C 5.885394,23.113965 5.165175,28.379265 5.165179,34.71189 C 5.267678,29.009494 6.008852,24.189824 7.508261,20.200196 C 10.503449,12.04971 17.519305,6.927501 27.234485,5.376422 C 31.925919,4.49092 37.470259,4.034578 43.952697,4.03448 L 83.690113,4.03448 C 84.842939,4.034572 86.26265,4.46372 87.2364,5.532462 C 88.21015,6.601205 88.50286,7.91363 88.50293,9.027752 L 88.50293,7.623394 C 88.50286,6.509272 88.21015,5.196844 87.2364,4.128104 C 86.26265,3.059375 84.842939,2.630213 83.690113,2.630123 L 43.952697,2.630123 z M 32.965538,35.61692 C 32.948262,35.833628 32.933874,36.040273 32.933875,36.303495 C 32.933866,38.129027 33.346831,38.860693 33.9471,39.393081 C 34.547369,39.925469 35.752044,40.422966 38,40.422944 L 62.285736,40.422944 C 67.30426,40.423006 71.640896,40.998102 75.394334,42.201796 C 79.334731,43.422054 82.638886,45.487497 85.178287,48.443385 C 87.75328,51.298304 89.55466,55.034477 90.71936,59.553413 C 91.80538,63.767798 92.35568,68.852719 92.42918,74.845306 C 92.4291,68.223023 91.89079,62.694891 90.71936,58.149056 C 89.55466,53.63012 87.75328,49.893946 85.178287,47.039028 C 82.638886,44.083139 79.334731,42.017696 75.394334,40.797439 C 71.640896,39.593745 67.30426,39.018646 62.285736,39.018586 L 38,39.018586 C 35.752044,39.018609 34.547369,38.521108 33.9471,37.988724 C 33.440063,37.539024 33.069292,36.890127 32.965538,35.61692 z M 62.637262,71.037937 C 62.548946,73.029803 62.100747,74.229492 61.56071,74.845306 C 60.960065,75.530232 60.081403,76.000008 58.141076,76 L 8.901446,76 C 7.798936,76.000018 6.430052,76.301411 5.418485,77.310734 C 4.406918,78.320056 4.088626,79.705954 4.088627,80.806023 L 4.088627,82.210381 C 4.088626,81.110311 4.406918,79.724413 5.418485,78.715091 C 6.430052,77.705768 7.798936,77.404375 8.901446,77.404357 L 58.141076,77.404357 C 60.081403,77.404365 60.960065,76.93459 61.56071,76.249664 C 62.161354,75.564738 62.668899,74.216178 62.668925,71.786928 C 62.668921,71.500429 62.654743,71.277618 62.637262,71.037937 z"
         style="font-size:182.7288208px;font-style:normal;font-variant:normal;font-weight:bold;font-stretch:normal;fill:#666666;fill-opacity:1;stroke:none;stroke-width:12;stroke-linecap:butt;stroke-linejoin:miter;stroke-miterlimit:4;stroke-dasharray:none;stroke-opacity:1;font-family:Sidux" />
      <path
         id="path7264"
         d="M 90.25029,26.59375 C 90.25018,28.198286 89.76939,30.465354 88.08729,32.1875 C 86.4052,33.909644 84.185403,34.437596 82.617999,34.4375 L 38.029355,34.4375 C 36.856432,34.437517 36.291719,34.601007 36.051757,34.6875 C 36.052796,34.764103 34.5,35.5 34.5,36.5 C 35.5,36 36.094652,35.984455 36.113557,36.09375 C 36.371199,36.004997 36.909293,35.843766 38.029355,35.84375 L 82.617999,35.84375 C 84.185403,35.843849 86.4052,35.315894 88.08729,33.59375 C 89.76939,31.871607 90.25018,29.604536 90.25029,28 L 90.25029,26.59375 z M 3.019699,35.5 C 3.016307,35.815704 3.019699,36.117202 3.019699,36.4375 C 3.019699,46.110833 4.923156,54.282661 9.477791,60.5 L 9.477791,60.53125 C 14.609369,67.484807 22.933117,71.000044 32.281962,71 L 59.072229,71 C 59.904857,71.000006 60.5,71 61.5,71.5 C 61.5,70.5 61,70 60.493627,69.75 C 60.31507,69.69564 59.904857,69.593756 59.072229,69.59375 L 32.281962,69.59375 C 22.933117,69.593794 14.609369,66.078557 9.477791,59.125 L 9.477791,59.09375 C 4.998681,52.979502 3.081973,44.963844 3.019699,35.5 z M 94.08188,75.6875 C 94.01197,82.083421 92.52099,88.19962 89.60139,93.90625 C 87.81749,97.5588 85.28297,100.79095 82.1236,103.4375 L 82.0618,103.5 L 82,103.53125 C 78.230768,106.51309 73.419679,107.84375 68.373117,107.84375 L 9.63229,107.84375 C 8.064975,107.84375 5.814202,107.34715 4.132097,105.625 C 2.449992,103.90286 2.00001,101.60463 2,100 L 2,101.40625 C 2.00001,103.01088 2.449992,105.30911 4.132097,107.03125 C 5.814202,108.7534 8.064975,109.25 9.63229,109.25 L 68.373117,109.25 C 73.419679,109.25 78.230768,107.91934 82,104.9375 L 82.0618,104.90625 L 82.1236,104.84375 C 85.28297,102.1972 87.81749,98.96505 89.60139,95.3125 C 92.59285,89.46541 94.08179,83.192588 94.08188,76.625 C 94.08188,76.306352 94.08409,76.001584 94.08188,75.6875 z"
         style="font-size:182.7288208px;font-style:normal;font-variant:normal;font-weight:bold;font-stretch:normal;fill:#000000;fill-opacity:1;stroke:none;stroke-width:12;stroke-linecap:butt;stroke-linejoin:miter;stroke-miterlimit:4;stroke-dasharray:none;stroke-opacity:1;font-family:Sidux"
         sodipodi:nodetypes="cscccccccscccsccccccccccccccccccsccsccccccsc" />
      <g
         mask="url(#mask2799)"
         clip-path="none"
         transform="matrix(0.8470777,-0.1999234,-7.5750857e-3,1.096876,-8.966547,23.689699)"
         id="g7153">
        <rect
           style="fill:url(#radialGradient2764);fill-opacity:1;stroke:none;stroke-width:6.5250001;stroke-linecap:round;stroke-linejoin:round;stroke-miterlimit:4;stroke-dasharray:none;stroke-dashoffset:4;stroke-opacity:1"
           id="rect5006"
           width="116.57474"
           height="100.66686"
           x="3.1015139"
           y="-19.539955"
           inkscape:r_cx="true"
           inkscape:r_cy="true"
           transform="matrix(0.9846538,0.174519,1.1078322e-2,0.9999386,0,0)" />
        <path
           inkscape:r_cy="true"
           inkscape:r_cx="true"
           style="opacity:0.46551723;fill:url(#radialGradient2766);fill-opacity:1;fill-rule:evenodd;stroke:none;stroke-width:1px;stroke-linecap:butt;stroke-linejoin:miter;stroke-opacity:1"
           d="M 2.8494777,-17.869026 L 3.286531,21.579772 C 15.705766,23.0703 27.651988,25.604654 39.311499,28.773482 C 44.210021,31.083421 69.246434,-3.8685279 97.603325,-0.5896288 L 2.8494777,-17.869026 z M 117.80802,18.518035 C 112.45919,18.30007 107.11164,18.259872 101.86141,18.602936 C 90.323535,19.356853 80.75026,28.61549 71.45771,38.976564 C 87.07131,44.457381 102.49403,50.368194 118.21865,55.58231 L 117.80802,18.518035 z"
           id="path5008"
           sodipodi:nodetypes="ccccccsccc" />
        <path
           sodipodi:nodetypes="cccccscc"
           id="path5024"
           d="M 2.8494777,-17.869026 L 3.286531,21.579772 C 15.705766,23.0703 69.246434,-3.8685279 97.603325,-0.5896288 L 2.8494777,-17.869026 z M 117.80802,18.518035 C 112.45919,18.30007 107.11164,18.259872 101.86141,18.602936 C 90.323535,19.356853 102.49403,50.368194 118.21865,55.58231 L 117.80802,18.518035 z"
           style="opacity:0.16810345;fill:url(#radialGradient2768);fill-opacity:1;fill-rule:evenodd;stroke:none;stroke-width:1px;stroke-linecap:butt;stroke-linejoin:miter;stroke-opacity:1"
           inkscape:r_cx="true"
           inkscape:r_cy="true" />
      </g>
    </g>
    <text
       xml:space="preserve"
       style="font-size:5px;font-style:normal;font-variant:normal;font-weight:normal;font-stretch:normal;text-align:start;line-height:100%;writing-mode:lr-tb;text-anchor:start;opacity:0.85632181;fill:url(#linearGradient2774);fill-opacity:1;stroke:none;stroke-width:1px;stroke-linecap:butt;stroke-linejoin:miter;stroke-opacity:1;font-family:Liberation Mono"
       x="36"
       y="104"
       id="text2509"
       sodipodi:linespacing="100%"><tspan
         style="fill:url(#linearGradient2774)"
         sodipodi:role="line"
         id="tspan2511"
         x="36"
         y="104">}</tspan></text>
    <path
       style="opacity:0.5;fill:#000000;fill-opacity:1;filter:url(#filter2770)"
       d="M 16,8 L 16,120 C 16,120 79.15625,120 79.15625,120 L 79.1875,120 C 79.187503,120 91.09375,110.09375 96.59375,104.59375 C 102.09375,99.09375 112,87.1875 112,87.1875 L 112,87.15625 L 112,8 L 16,8 z"
       id="path7865"
       sodipodi:nodetypes="csccscccc"
       transform="matrix(1.0416667,0,0,1.0267857,9.7288426,2.8233177)" />
    <path
       style="opacity:0.85632181;fill:#ffffff;fill-opacity:1"
       d="M 28.395507,12.037608 L 28.395507,124.0376 C 28.395507,124.0376 91.541927,124.0376 91.541927,124.0376 L 124.39551,91.184024 L 124.39551,12.037608 L 28.395507,12.037608 z"
       id="path34"
       sodipodi:nodetypes="cccccc" />
    <path
       style="opacity:0.85632181;fill:url(#radialGradient7044);fill-opacity:1"
       d="M 30.395507,13.037611 C 29.844507,13.037611 29.395507,13.486461 29.395507,14.037276 L 29.395507,122.00112 C 29.395507,122.55293 29.844507,123.00078 30.395507,123.00078 L 89.567507,123.00078 C 89.830507,123.00078 92.330187,123.11891 92.516187,122.93198 L 123.10251,92.131814 C 123.28951,91.944874 123.39551,89.447024 123.39551,89.184114 L 123.39551,14.037276 C 123.39551,13.486461 122.94751,13.037611 122.39551,13.037611 L 30.395507,13.037611 z"
       id="path59"
       sodipodi:nodetypes="ccccccccccc" />
    <text
       xml:space="preserve"
       style="font-size:5px;font-style:normal;font-variant:normal;font-weight:normal;font-stretch:normal;text-align:start;line-height:100%;writing-mode:lr-tb;text-anchor:start;opacity:0.7;fill:url(#linearGradient7041);fill-opacity:1;stroke:none;stroke-width:1px;stroke-linecap:butt;stroke-linejoin:miter;stroke-opacity:1;font-family:Liberation Mono"
       x="36.26368"
       y="20.000011"
       id="text2489"
       sodipodi:linespacing="100%"><tspan
         style="fill:url(#linearGradient7041)"
         sodipodi:role="line"
         id="tspan2491"
         x="36.26368"
         y="20.000011">Jan 21 14:53:03 sidux</tspan><tspan
         style="fill:url(#linearGradient7041)"
         sodipodi:role="line"
         x="36.26368"
         y="25.000011"
         id="tspan7093">Jan 21 14:53:03 sidux</tspan><tspan
         style="fill:url(#linearGradient7041)"
         sodipodi:role="line"
         x="36.26368"
         y="30.000011"
         id="tspan7095">Jan 21 14:53:03 sidux</tspan><tspan
         style="fill:url(#linearGradient7041)"
         sodipodi:role="line"
         x="36.26368"
         y="35.000011"
         id="tspan7097">Jan 21 14:53:03 sidux</tspan><tspan
         style="fill:url(#linearGradient7041)"
         sodipodi:role="line"
         x="36.26368"
         y="40.000011"
         id="tspan7099">Jan 21 14:53:03 sidux</tspan><tspan
         style="fill:url(#linearGradient7041)"
         sodipodi:role="line"
         x="36.26368"
         y="45.000015"
         id="tspan7101">Jan 21 14:53:03 sidux</tspan><tspan
         style="fill:url(#linearGradient7041)"
         sodipodi:role="line"
         x="36.26368"
         y="50.000015"
         id="tspan7103">Jan 21 14:53:03 sidux</tspan><tspan
         style="fill:url(#linearGradient7041)"
         sodipodi:role="line"
         x="36.26368"
         y="55.000015"
         id="tspan7105">Jan 21 14:53:03 sidux</tspan><tspan
         style="fill:url(#linearGradient7041)"
         sodipodi:role="line"
         x="36.26368"
         y="60.000015"
         id="tspan7107">Jan 21 14:53:03 sidux</tspan><tspan
         style="fill:url(#linearGradient7041)"
         sodipodi:role="line"
         x="36.26368"
         y="65.000015"
         id="tspan7109">Jan 21 14:53:03 sidux</tspan><tspan
         style="fill:url(#linearGradient7041)"
         sodipodi:role="line"
         x="36.26368"
         y="70.000015"
         id="tspan7111">Jan 21 14:53:03 sidux</tspan><tspan
         style="fill:url(#linearGradient7041)"
         sodipodi:role="line"
         x="36.26368"
         y="75.000015"
         id="tspan7113">Jan 21 14:53:03 sidux</tspan><tspan
         style="fill:url(#linearGradient7041)"
         sodipodi:role="line"
         x="36.26368"
         y="80.000015"
         id="tspan7115">Jan 21 14:53:03 sidux</tspan><tspan
         style="fill:url(#linearGradient7041)"
         sodipodi:role="line"
         x="36.26368"
         y="85.000015"
         id="tspan7117">Jan 21 14:53:03 sidux</tspan><tspan
         style="fill:url(#linearGradient7041)"
         sodipodi:role="line"
         x="36.26368"
         y="90.000015"
         id="tspan7119">Jan 21 14:53:03 sidux</tspan><tspan
         style="fill:url(#linearGradient7041)"
         sodipodi:role="line"
         x="36.26368"
         y="95.000015"
         id="tspan7121">Jan 21 14:53:03 sidux</tspan><tspan
         style="fill:url(#linearGradient7041)"
         sodipodi:role="line"
         x="36.26368"
         y="100.00002"
         id="tspan7123">Jan 21 14:53:03 sidux</tspan><tspan
         style="fill:url(#linearGradient7041)"
         sodipodi:role="line"
         x="36.26368"
         y="105.00002"
         id="tspan7125">Jan 21 14:53:03 sidux</tspan><tspan
         style="fill:url(#linearGradient7041)"
         sodipodi:role="line"
         x="36.26368"
         y="110.00002"
         id="tspan7127">Jan 21 14:53:03 sidux</tspan><tspan
         style="fill:url(#linearGradient7041)"
         sodipodi:role="line"
         x="36.26368"
         y="115.00002"
         id="tspan7129">Jan 21 14:53:03 sidux</tspan><tspan
         style="fill:url(#linearGradient7041)"
         sodipodi:role="line"
         x="36.26368"
         y="120.00002"
         id="tspan7131">Jan 21 14:53:03 sidux</tspan><tspan
         style="fill:url(#linearGradient7041)"
         sodipodi:role="line"
         x="36.26368"
         y="125.00002"
         id="tspan7133" /></text>
    <g
       id="g2499"
       transform="translate(12.39551,4.0376077)">
      <path
         transform="translate(40,0)"
         clip-path="url(#clipPath7084)"
         sodipodi:nodetypes="cccc"
         style="opacity:0.4;fill:#000000;fill-opacity:1;filter:url(#filter6697)"
         id="path5540"
         d="M 41.879531,115.98249 C 41.879531,115.98249 66.18914,91.672876 66.18914,91.672876 C 66.18914,91.672876 56.836,94.586 46.586,94.586 C 46.586,104.836 41.879531,115.98249 41.879531,115.98249 z" />
      <path
         sodipodi:nodetypes="csccc"
         d="M 79.172,120 C 79.172,120 91.086,110.086 96.586,104.586 C 102.086,99.086 112,87.172 112,87.172 C 112,87.172 98.25,96 88,96 C 88,106.25 79.172,120 79.172,120 z"
         id="path14523"
         style="fill:url(#linearGradient10213);fill-opacity:1" />
    </g>
    <text
       xml:space="preserve"
       style="font-size:40.34357071px;font-style:normal;font-weight:normal;fill:#cf4913;fill-opacity:1;stroke:none;stroke-width:1px;stroke-linecap:butt;stroke-linejoin:miter;stroke-opacity:1;font-family:Bitstream Vera Sans"
       x="33.253426"
       y="71.986046"
       id="text7048"
       transform="scale(0.9467163,1.0562827)"><tspan
         sodipodi:role="line"
         id="tspan7050"
         x="33.253426"
         y="71.986046"
         style="font-weight:bold;fill:#cf4913;fill-opacity:1">LOG</tspan></text>
    <g
       id="g3491"
       clip-path="url(#clipPath3545)"
       style="opacity:0.19">
      <path
         id="path3493"
         d="M 43.78125,4.09375 C 37.25218,4.093849 31.604411,4.501882 26.71875,5.4375 C 16.409774,7.107392 8.310984,13.077468 5,22.21875 C 3.21546,27.036311 2.5,32.640853 2.5,39.21875 C 2.5,48.892083 4.42502,57.063911 9.03125,63.28125 L 9.03125,63.3125 C 14.220957,70.266057 22.639004,73.781294 32.09375,73.78125 L 59.1875,73.78125 C 60.029557,73.781256 60.444424,73.88314 60.625,73.9375 C 60.650779,74.078363 60.687493,74.359219 60.6875,74.9375 C 60.687478,76.92984 60.256622,77.502149 60.3125,77.4375 C 60.271767,77.466764 60.063087,77.531254 59.1875,77.53125 L 9.1875,77.53125 C 7.602448,77.531283 5.32614,78.027873 3.625,79.75 C 1.92386,81.472126 1.46875,83.770363 1.46875,85.375 L 1.46875,104.1875 C 1.46876,105.79213 1.92384,108.09036 3.625,109.8125 C 5.32616,111.53465 7.60243,112.03125 9.1875,112.03125 L 68.59375,112.03125 C 73.69748,112.03125 78.563066,110.70059 82.375,107.71875 L 82.4375,107.6875 L 82.5,107.625 C 85.69516,104.97845 88.25839,101.7463 90.0625,98.09375 C 93.087848,92.24666 94.593654,85.973838 94.59375,79.40625 C 94.593663,72.607372 94.091976,66.852033 92.84375,61.9375 C 91.608969,57.076752 89.642084,52.854818 86.6875,49.53125 C 83.803326,46.125056 80.036635,43.772736 75.6875,42.40625 C 71.589304,41.072817 67.051627,40.531316 61.875,40.53125 L 37.90625,40.53125 C 36.677238,40.531263 36.151757,40.35077 35.96875,40.28125 C 35.949626,40.171958 35.906247,39.959605 35.90625,39.40625 C 35.906248,39.006134 35.907304,38.951603 35.90625,38.875 C 36.148928,38.78851 36.720042,38.625017 37.90625,38.625 L 83,38.625 C 84.585157,38.625099 86.830097,38.097144 88.53125,36.375 C 90.232403,34.652857 90.718644,32.385786 90.71875,30.78125 L 90.71875,12.09375 C 90.718656,10.520784 90.313979,8.373701 88.6875,6.5625 C 87.061021,4.751298 84.684413,4.093887 83,4.09375 L 43.78125,4.09375 z M 43.78125,7.09375 L 83,7.09375 C 84.137779,7.093842 85.538964,7.523568 86.5,8.59375 C 87.461036,9.663933 87.749933,10.978127 87.75,12.09375 L 87.75,30.78125 C 87.749927,31.882776 87.404622,33.23931 86.40625,34.25 C 85.407878,35.260691 84.088151,35.593815 83,35.59375 L 37.90625,35.59375 C 35.665539,35.593782 34.425291,36.065362 33.84375,36.5625 C 33.26221,37.059636 32.906243,37.727827 32.90625,39.40625 C 32.906241,41.234242 33.313816,41.966894 33.90625,42.5 C 34.498684,43.033105 35.687635,43.531273 37.90625,43.53125 L 61.875,43.53125 C 66.828021,43.531313 71.108053,44.107184 74.8125,45.3125 C 78.701466,46.534402 81.962494,48.602628 84.46875,51.5625 C 87.010135,54.421266 88.788003,58.162474 89.9375,62.6875 C 91.093638,67.239461 91.624915,72.775043 91.625,79.40625 C 91.62491,85.502904 90.219488,91.31284 87.40625,96.75 C 85.794734,100.01262 83.491894,102.91196 80.59375,105.3125 L 80.5625,105.3125 L 80.53125,105.34375 C 77.324644,107.85208 73.214732,109 68.59375,109 L 9.1875,109 C 8.099372,109 6.748378,108.6982 5.75,107.6875 C 4.75162,106.6768 4.4375,105.28905 4.4375,104.1875 L 4.4375,85.375 C 4.4375,84.273448 4.75164,82.885682 5.75,81.875 C 6.748364,80.864317 8.099381,80.562518 9.1875,80.5625 L 59.1875,80.5625 C 61.102501,80.562508 61.969695,80.092099 62.5625,79.40625 C 63.155304,78.720401 63.656225,77.370024 63.65625,74.9375 C 63.656226,73.071828 63.272645,72.253901 62.75,71.75 C 62.227355,71.246101 61.197165,70.781269 59.1875,70.78125 L 32.09375,70.78125 C 23.287196,70.781291 16.042375,67.669954 11.4375,61.5 C 7.360832,55.997441 5.49999,48.484188 5.5,39.21875 C 5.5,32.877594 6.210815,27.605196 7.8125,23.28125 C 10.768594,15.119781 17.692876,9.990669 27.28125,8.4375 C 31.91145,7.550805 37.383423,7.093848 43.78125,7.09375 z"
         style="font-size:182.72882079999999405px;font-style:normal;font-variant:normal;font-weight:bold;font-stretch:normal;opacity:0.56652358999999997;fill:#000000;fill-opacity:1;stroke:none;stroke-width:12;stroke-linecap:butt;stroke-linejoin:miter;stroke-miterlimit:4;stroke-dasharray:none;stroke-opacity:1;filter:url(#filter7576);font-family:Sidux" />
      <path
         transform="scale(0.9938873,1.0061503)"
         style="font-size:182.72882079999999405px;font-style:normal;font-variant:normal;font-weight:bold;font-stretch:normal;fill:none;fill-opacity:1;stroke:#333333;stroke-width:12;stroke-linecap:butt;stroke-linejoin:miter;stroke-miterlimit:4;stroke-opacity:1;font-family:Sidux"
         d="M 7.4644718,82.84297 L 7.4644718,101.57981 C 7.4644704,102.76945 8.0592902,103.36427 9.248933,103.36427 L 69.028381,103.36427 C 73.192057,103.36427 76.582529,102.35308 79.19981,100.33069 C 81.816944,98.189341 83.839331,95.691098 85.266978,92.835952 C 87.884105,87.839477 89.192709,82.545581 89.192792,76.954248 C 89.192709,70.530221 88.657371,65.236325 87.586777,61.072544 C 86.51602,56.908848 84.910006,53.637339 82.768732,51.258008 C 80.627304,48.759817 77.831651,46.975357 74.381765,45.904624 C 71.050705,44.834006 67.005931,44.298668 62.247429,44.298609 L 38.157203,44.298609 C 32.803793,44.298668 30.127104,41.919389 30.127128,37.160765 C 30.127104,32.640201 32.803793,30.379885 38.157203,30.379812 L 83.482516,30.379812 C 84.672079,30.379885 85.266898,29.785066 85.266978,28.595351 L 85.266978,10.036955 C 85.266898,8.7284452 84.672079,8.0741435 83.482516,8.0740482 L 44.045925,8.0740482 C 37.740797,8.0741435 32.387419,8.4905173 27.985775,9.323171 C 19.063456,10.750832 13.293704,15.033535 10.676502,22.171291 C 9.2489297,25.978219 8.535146,30.915223 8.5351485,36.982319 C 8.535146,45.785718 10.319605,52.566663 13.888532,57.325176 C 15.672983,59.823465 18.052263,61.78637 21.026376,63.213897 C 24.119424,64.641505 27.866789,65.355289 32.268482,65.355251 L 59.570737,65.355251 C 64.56717,65.355289 67.065413,67.734568 67.065474,72.493095 C 67.065413,78.203396 64.56717,81.058531 59.570737,81.058509 L 9.248933,81.058509 C 8.0592902,81.058531 7.4644704,81.653351 7.4644718,82.84297"
         id="path3495" />
      <path
         transform="scale(0.9938873,1.0061503)"
         style="font-size:182.72882079999999405px;font-style:normal;font-variant:normal;font-weight:bold;font-stretch:normal;fill:none;fill-opacity:1;stroke:url(#radialGradient2786);stroke-width:6;stroke-linecap:butt;stroke-linejoin:miter;stroke-miterlimit:4;stroke-opacity:1;font-family:Sidux"
         d="M 7.4644718,82.84297 L 7.4644718,101.57981 C 7.4644704,102.76945 8.0592902,103.36427 9.248933,103.36427 L 69.028381,103.36427 C 73.192057,103.36427 76.582529,102.35308 79.19981,100.33069 C 81.816944,98.189341 83.839331,95.691098 85.266978,92.835952 C 87.884105,87.839477 89.192709,82.545581 89.192792,76.954248 C 89.192709,70.530221 88.657371,65.236325 87.586777,61.072544 C 86.51602,56.908848 84.910006,53.637339 82.768732,51.258008 C 80.627304,48.759817 77.831651,46.975357 74.381765,45.904624 C 71.050705,44.834006 67.005931,44.298668 62.247429,44.298609 L 38.157203,44.298609 C 32.803793,44.298668 30.127104,41.919389 30.127128,37.160765 C 30.127104,32.640201 32.803793,30.379885 38.157203,30.379812 L 83.482516,30.379812 C 84.672079,30.379885 85.266898,29.785066 85.266978,28.595351 L 85.266978,10.036955 C 85.266898,8.7284452 84.672079,8.0741435 83.482516,8.0740482 L 44.045925,8.0740482 C 37.740797,8.0741435 32.387419,8.4905173 27.985775,9.323171 C 19.063456,10.750832 13.293704,15.033535 10.676502,22.171291 C 9.2489297,25.978219 8.535146,30.915223 8.5351485,36.982319 C 8.535146,45.785718 10.319605,52.566663 13.888532,57.325176 C 15.672983,59.823465 18.052263,61.78637 21.026376,63.213897 C 24.119424,64.641505 27.866789,65.355289 32.268482,65.355251 L 59.570737,65.355251 C 64.56717,65.355289 67.065413,67.734568 67.065474,72.493095 C 67.065413,78.203396 64.56717,81.058531 59.570737,81.058509 L 9.248933,81.058509 C 8.0592902,81.058531 7.4644704,81.653351 7.4644718,82.84297"
         id="path3497" />
      <path
         transform="scale(0.9938873,1.0061503)"
         style="font-size:182.72882079999999405px;font-style:normal;font-variant:normal;font-weight:bold;font-stretch:normal;fill:#cccccc;fill-opacity:1;stroke:none;stroke-width:6;stroke-linecap:butt;stroke-linejoin:miter;stroke-miterlimit:4;stroke-opacity:1;font-family:Sidux"
         d="M 7.1782446,82.375616 L 7.1782446,101.11246 C 7.1782432,102.3021 7.7730629,102.89692 8.9627057,102.89692 L 68.742154,102.89692 C 72.905829,102.89692 76.296302,101.88573 78.913582,99.863335 C 81.530716,97.721987 83.553104,95.223744 84.98075,92.368599 C 87.597878,87.372123 88.906482,82.078227 88.906565,76.486894 C 88.906482,70.062867 88.371144,64.768971 87.30055,60.60519 C 86.229793,56.441494 84.623779,53.169985 82.482505,50.790654 C 80.341077,48.292463 77.545424,46.508004 74.095537,45.437271 C 70.764478,44.366652 66.719704,43.831315 61.961202,43.831255 L 37.870976,43.831255 C 32.517566,43.831315 29.840877,41.452035 29.840901,36.693411 C 29.840877,32.172847 32.517566,29.912532 37.870976,29.912459 L 83.196289,29.912459 C 84.385851,29.912532 84.980671,29.317712 84.98075,28.127997 L 84.98075,9.5696016 C 84.980671,8.2610914 84.385851,7.6067896 83.196289,7.6066943 L 43.759698,7.6066943 C 37.45457,7.6067896 32.101192,8.0231635 27.699548,8.8558171 C 18.777229,10.283479 13.007477,14.566181 10.390275,21.703937 C 8.9627025,25.510865 8.2489188,30.447869 8.2489213,36.514965 C 8.2489188,45.318364 10.033378,52.09931 13.602305,56.857822 C 15.386756,59.356111 17.766035,61.319016 20.740149,62.746544 C 23.833197,64.174151 27.580562,64.887935 31.982254,64.887897 L 59.28451,64.887897 C 64.280943,64.887935 66.779186,67.267214 66.779247,72.025742 C 66.779186,77.736042 64.280943,80.591177 59.28451,80.591155 L 8.9627057,80.591155 C 7.7730629,80.591177 7.1782432,81.185997 7.1782446,82.375616"
         id="path3499" />
      <path
         style="font-size:182.72882079999999405px;font-style:normal;font-variant:normal;font-weight:bold;font-stretch:normal;fill:#666666;fill-opacity:1;stroke:none;stroke-width:12;stroke-linecap:butt;stroke-linejoin:miter;stroke-miterlimit:4;stroke-dasharray:none;stroke-opacity:1;font-family:Sidux"
         d="M 43.952697,2.630123 C 37.470259,2.630223 31.925919,3.086568 27.234485,3.972065 C 17.519305,5.523144 10.503449,10.64535 7.508261,18.795838 C 5.885394,23.113965 5.165175,28.379265 5.165179,34.71189 C 5.267678,29.009494 6.008852,24.189824 7.508261,20.200196 C 10.503449,12.04971 17.519305,6.927501 27.234485,5.376422 C 31.925919,4.49092 37.470259,4.034578 43.952697,4.03448 L 83.690113,4.03448 C 84.842939,4.034572 86.26265,4.46372 87.2364,5.532462 C 88.21015,6.601205 88.50286,7.91363 88.50293,9.027752 L 88.50293,7.623394 C 88.50286,6.509272 88.21015,5.196844 87.2364,4.128104 C 86.26265,3.059375 84.842939,2.630213 83.690113,2.630123 L 43.952697,2.630123 z M 32.965538,35.61692 C 32.948262,35.833628 32.933874,36.040273 32.933875,36.303495 C 32.933866,38.129027 33.346831,38.860693 33.9471,39.393081 C 34.547369,39.925469 35.752044,40.422966 38,40.422944 L 62.285736,40.422944 C 67.30426,40.423006 71.640896,40.998102 75.394334,42.201796 C 79.334731,43.422054 82.638886,45.487497 85.178287,48.443385 C 87.75328,51.298304 89.55466,55.034477 90.71936,59.553413 C 91.80538,63.767798 92.35568,68.852719 92.42918,74.845306 C 92.4291,68.223023 91.89079,62.694891 90.71936,58.149056 C 89.55466,53.63012 87.75328,49.893946 85.178287,47.039028 C 82.638886,44.083139 79.334731,42.017696 75.394334,40.797439 C 71.640896,39.593745 67.30426,39.018646 62.285736,39.018586 L 38,39.018586 C 35.752044,39.018609 34.547369,38.521108 33.9471,37.988724 C 33.440063,37.539024 33.069292,36.890127 32.965538,35.61692 z M 62.637262,71.037937 C 62.548946,73.029803 62.100747,74.229492 61.56071,74.845306 C 60.960065,75.530232 60.081403,76.000008 58.141076,76 L 8.901446,76 C 7.798936,76.000018 6.430052,76.301411 5.418485,77.310734 C 4.406918,78.320056 4.088626,79.705954 4.088627,80.806023 L 4.088627,82.210381 C 4.088626,81.110311 4.406918,79.724413 5.418485,78.715091 C 6.430052,77.705768 7.798936,77.404375 8.901446,77.404357 L 58.141076,77.404357 C 60.081403,77.404365 60.960065,76.93459 61.56071,76.249664 C 62.161354,75.564738 62.668899,74.216178 62.668925,71.786928 C 62.668921,71.500429 62.654743,71.277618 62.637262,71.037937 z"
         id="path3501"
         sodipodi:nodetypes="ccccccccsccscccssccccscsccccsccsccsccsccssc" />
      <path
         sodipodi:nodetypes="cscccccccscccsccccccccccccccccccsccsccccccsc"
         style="font-size:182.72882079999999405px;font-style:normal;font-variant:normal;font-weight:bold;font-stretch:normal;fill:#000000;fill-opacity:1;stroke:none;stroke-width:12;stroke-linecap:butt;stroke-linejoin:miter;stroke-miterlimit:4;stroke-dasharray:none;stroke-opacity:1;font-family:Sidux"
         d="M 90.25029,26.59375 C 90.25018,28.198286 89.76939,30.465354 88.08729,32.1875 C 86.4052,33.909644 84.185403,34.437596 82.617999,34.4375 L 38.029355,34.4375 C 36.856432,34.437517 36.291719,34.601007 36.051757,34.6875 C 36.052796,34.764103 34.5,35.5 34.5,36.5 C 35.5,36 36.094652,35.984455 36.113557,36.09375 C 36.371199,36.004997 36.909293,35.843766 38.029355,35.84375 L 82.617999,35.84375 C 84.185403,35.843849 86.4052,35.315894 88.08729,33.59375 C 89.76939,31.871607 90.25018,29.604536 90.25029,28 L 90.25029,26.59375 z M 3.019699,35.5 C 3.016307,35.815704 3.019699,36.117202 3.019699,36.4375 C 3.019699,46.110833 4.923156,54.282661 9.477791,60.5 L 9.477791,60.53125 C 14.609369,67.484807 22.933117,71.000044 32.281962,71 L 59.072229,71 C 59.904857,71.000006 60.5,71 61.5,71.5 C 61.5,70.5 61,70 60.493627,69.75 C 60.31507,69.69564 59.904857,69.593756 59.072229,69.59375 L 32.281962,69.59375 C 22.933117,69.593794 14.609369,66.078557 9.477791,59.125 L 9.477791,59.09375 C 4.998681,52.979502 3.081973,44.963844 3.019699,35.5 z M 94.08188,75.6875 C 94.01197,82.083421 92.52099,88.19962 89.60139,93.90625 C 87.81749,97.5588 85.28297,100.79095 82.1236,103.4375 L 82.0618,103.5 L 82,103.53125 C 78.230768,106.51309 73.419679,107.84375 68.373117,107.84375 L 9.63229,107.84375 C 8.064975,107.84375 5.814202,107.34715 4.132097,105.625 C 2.449992,103.90286 2.00001,101.60463 2,100 L 2,101.40625 C 2.00001,103.01088 2.449992,105.30911 4.132097,107.03125 C 5.814202,108.7534 8.064975,109.25 9.63229,109.25 L 68.373117,109.25 C 73.419679,109.25 78.230768,107.91934 82,104.9375 L 82.0618,104.90625 L 82.1236,104.84375 C 85.28297,102.1972 87.81749,98.96505 89.60139,95.3125 C 92.59285,89.46541 94.08179,83.192588 94.08188,76.625 C 94.08188,76.306352 94.08409,76.001584 94.08188,75.6875 z"
         id="path3503" />
      <g
         id="g3505"
         transform="matrix(0.8470777,-0.1999234,-7.5750857e-3,1.096876,-8.966547,23.689699)"
         clip-path="none"
         mask="url(#mask2799)">
        <rect
           transform="matrix(0.9846538,0.174519,1.1078322e-2,0.9999386,0,0)"
           inkscape:r_cy="true"
           inkscape:r_cx="true"
           y="-19.539955"
           x="3.1015139"
           height="100.66686"
           width="116.57474"
           id="rect3507"
           style="fill:url(#radialGradient2764);fill-opacity:1;stroke:none;stroke-width:6.52500009999999975;stroke-linecap:round;stroke-linejoin:round;stroke-miterlimit:4;stroke-dasharray:none;stroke-dashoffset:4;stroke-opacity:1" />
        <path
           sodipodi:nodetypes="ccccccsccc"
           id="path3509"
           d="M 2.8494777,-17.869026 L 3.286531,21.579772 C 15.705766,23.0703 27.651988,25.604654 39.311499,28.773482 C 44.210021,31.083421 69.246434,-3.8685279 97.603325,-0.5896288 L 2.8494777,-17.869026 z M 117.80802,18.518035 C 112.45919,18.30007 107.11164,18.259872 101.86141,18.602936 C 90.323535,19.356853 80.75026,28.61549 71.45771,38.976564 C 87.07131,44.457381 102.49403,50.368194 118.21865,55.58231 L 117.80802,18.518035 z"
           style="opacity:0.46551723000000000;fill:url(#radialGradient2766);fill-opacity:1;fill-rule:evenodd;stroke:none;stroke-width:1px;stroke-linecap:butt;stroke-linejoin:miter;stroke-opacity:1"
           inkscape:r_cx="true"
           inkscape:r_cy="true" />
        <path
           inkscape:r_cy="true"
           inkscape:r_cx="true"
           style="opacity:0.16810344999999999;fill:url(#radialGradient2768);fill-opacity:1;fill-rule:evenodd;stroke:none;stroke-width:1px;stroke-linecap:butt;stroke-linejoin:miter;stroke-opacity:1"
           d="M 2.8494777,-17.869026 L 3.286531,21.579772 C 15.705766,23.0703 69.246434,-3.8685279 97.603325,-0.5896288 L 2.8494777,-17.869026 z M 117.80802,18.518035 C 112.45919,18.30007 107.11164,18.259872 101.86141,18.602936 C 90.323535,19.356853 102.49403,50.368194 118.21865,55.58231 L 117.80802,18.518035 z"
           id="path3511"
           sodipodi:nodetypes="cccccscc" />
      </g>
    </g>
  </g>
</svg>
