/* XPM */
static char *startsyslog-16[] = {
/* columns rows colors chars-per-pixel */
"16 16 159 2",
"   c black",
".  c gray2",
"X  c #060606",
"o  c #0B0B0B",
"O  c gray5",
"+  c #101010",
"@  c gray8",
"#  c gray11",
"$  c #1D1D1D",
"%  c #202020",
"&  c gray15",
"*  c #272727",
"=  c #323232",
"-  c gray20",
";  c #373737",
":  c #3A3A3A",
">  c gray24",
",  c #3E3E3E",
"<  c gray25",
"1  c #434343",
"2  c #444444",
"3  c gray27",
"4  c #464646",
"5  c #4C4C4C",
"6  c #505050",
"7  c #676767",
"8  c #727272",
"9  c #D0683F",
"0  c #CE7957",
"q  c #D06B42",
"w  c #D36A40",
"e  c #D46D44",
"r  c #D37048",
"t  c #D3734C",
"y  c #D37853",
"u  c #D17956",
"i  c #D67851",
"p  c #D38769",
"a  c #D78868",
"s  c #D78B6D",
"d  c #D98968",
"f  c #D88B6C",
"g  c #D88C6D",
"h  c #DE8D6C",
"j  c #D59378",
"k  c #808080",
"l  c gray53",
"z  c gray54",
"x  c gray55",
"c  c #909090",
"v  c #929292",
"b  c #939393",
"n  c #989898",
"m  c gray60",
"M  c #A2A2A2",
"N  c #ABACAC",
"B  c #ACACAC",
"V  c #AEAEAE",
"C  c gray69",
"Z  c gray71",
"A  c #B6B6B6",
"S  c #B7B7B7",
"D  c gray72",
"F  c #B8B8B9",
"G  c #B9B9B9",
"H  c #BBBBBB",
"J  c #BCBDBD",
"K  c gray75",
"L  c #D39A83",
"P  c #DA9B82",
"I  c #DA9D85",
"U  c #CEA08E",
"Y  c #D6A896",
"T  c #DBA995",
"R  c #DBAD9B",
"E  c #DEAF9C",
"W  c #D7B4A6",
"Q  c #DAB1A1",
"!  c #DFB5A4",
"~  c #E5A388",
"^  c #DDC0B4",
"/  c #DAC5BC",
"(  c #E1C6BC",
")  c #EDC7B7",
"_  c #F0C9BA",
"`  c #C0C0C0",
"'  c gray76",
"]  c #C3C3C3",
"[  c #C5C5C5",
"{  c #C5C6C6",
"}  c #C6C6C6",
"|  c #C6C7C7",
" . c gray78",
".. c #C8C8C8",
"X. c gray79",
"o. c #CACBCB",
"O. c #CBCBCB",
"+. c #CBCBCC",
"@. c gray80",
"#. c #CCCDCD",
"$. c #CDCDCD",
"%. c #CECECE",
"&. c gray81",
"*. c #DECFC8",
"=. c #DAD0CC",
"-. c #D0D0D0",
";. c gray82",
":. c #D1D2D2",
">. c #D2D2D2",
",. c LightGray",
"<. c #D3D4D4",
"1. c gray83",
"2. c #D5D5D5",
"3. c gray84",
"4. c #D6D7D7",
"5. c #D7D7D7",
"6. c #DFD6D2",
"7. c #DCD7D5",
"8. c #D8D8D8",
"9. c #DADADA",
"0. c gray86",
"q. c #DEDAD8",
"w. c gainsboro",
"e. c #DDDDDD",
"r. c #DDDEDE",
"t. c gray87",
"y. c #E0D0C9",
"u. c #E0D5D1",
"i. c #F1D7CC",
"p. c #F1DCD4",
"a. c gray88",
"s. c #E0E1E1",
"d. c #E1E1E1",
"f. c #E1E2E2",
"g. c #E2E2E2",
"h. c gray89",
"j. c #E3E4E4",
"k. c #E4E4E4",
"l. c gray90",
"z. c #EAE6E4",
"x. c gray91",
"c. c #E9E9E9",
"v. c gray92",
"b. c #ECECEC",
"n. c #ECEDED",
"m. c gray93",
"M. c #EEEEEE",
"N. c #EFEFEF",
"B. c #EFF0F0",
"V. c gray94",
"C. c #F1F1F1",
"Z. c gray95",
"A. c #F2F3F3",
"S. c #F3F3F3",
"D. c gray96",
"F. c gray97",
"G. c #F8F8F8",
"H. c gray100",
"J. c None",
/* pixels */
"J.J.1 6 c N A F C M b 8 < = J.J.",
"J.= 7 F O.#.#.| | | | #.B | :.N ",
"@ ; ' K d.t.t.t.<.t.t.d.:.m.V.<.",
"X 3 | K d.<.O.:.O.#.:.<.&.V.S.8.",
"  5 ] H t.<.#.o.| ,.,.9.:.V.D.8.",
"  , F F 6.7.d.l.*.0.5.<.z.p.F.9.",
"  * k A g Y d.T e q ^ Q 9 h ) 9.",
"    : m s R l.e *.! g t ( T i.0.",
"J.* + m p U -.0 W I j h E j ~ t.",
"3 3 z c L q y / 0 g 6.=.d t _ t.",
"X , #.' z.j.l.l.d.m.c.c.v.t.F.9.",
"  , :.O.m.c.m.m.l.c.c.d.<.d.m.' ",
"  : A | V.M.S.V.x.M.x.4.] j.| O ",
"  O # l :.:.9.t.&.<.<.w.0.W % J.",
"J.J.J.F D.v.D.V.x.V.x.s.F # J.J.",
"J.J.J.x #.#.#.#.&.&.O.J   J.J.J."
};
