/* XPM */
static char *startsyslog[] = {
/* columns rows colors chars-per-pixel */
"32 32 110 2",
"   c #000000",
".  c #0A0A0A",
"X  c #191919",
"o  c #242424",
"O  c #2B2B2B",
"+  c #323232",
"@  c #3A3A3A",
"#  c #434343",
"$  c #4B4B4B",
"%  c #545454",
"&  c #5D5D5D",
"*  c #636363",
"=  c #696969",
"-  c #707070",
";  c gray49",
":  c #CF4913",
">  c #D04B16",
",  c #D04E1A",
"<  c #D0501C",
"1  c #D05523",
"2  c #D25D2E",
"3  c #CF6338",
"4  c #D36235",
"5  c #D16539",
"6  c #D2693E",
"7  c #CD6941",
"8  c #CE7653",
"9  c #CF7C5B",
"0  c #D26B41",
"q  c #D47149",
"w  c #D27753",
"e  c #D47C58",
"r  c #DA7850",
"t  c #D5805F",
"y  c #D58565",
"u  c #D18769",
"i  c #D38C6E",
"p  c #DE8C6B",
"a  c #D78F72",
"s  c #D99275",
"d  c #D9957A",
"f  c #E0997C",
"g  c #848484",
"h  c #8D8D8D",
"j  c #949494",
"k  c #9A9A9A",
"l  c #A1A1A1",
"z  c #AAAAAA",
"x  c #B2B2B2",
"c  c #BCBCBC",
"v  c #C89A87",
"b  c #D69880",
"n  c #D69F89",
"m  c #C6A497",
"M  c #CCA596",
"N  c #CCAA9D",
"B  c #D4A28E",
"V  c #DCA48E",
"C  c #D3A593",
"Z  c #D1AC9D",
"A  c #DBA792",
"S  c #D9AA97",
"D  c #DCAE9C",
"F  c #DEB19F",
"G  c #CEADA1",
"H  c #CDB2A7",
"J  c #D3B1A4",
"K  c #D2B7AC",
"L  c #D7B9AD",
"P  c #D8B2A2",
"I  c #DCB7A8",
"U  c #DAB8AA",
"Y  c #D5BFB6",
"T  c #DBBCB0",
"R  c #E4A389",
"E  c #E3AD97",
"W  c #E0BAAB",
"Q  c #D6C4BD",
"!  c #DDC8BF",
"~  c #E1C3B7",
"^  c #E8C0B0",
"/  c #EECBBD",
"(  c #C3C3C3",
")  c #C7C8C8",
"_  c #CBCBCB",
"`  c #CFCFD0",
"'  c #CFD0D0",
"]  c #D3CDCC",
"[  c #D9C8C1",
"{  c #DBCEC9",
"}  c #DCD1CD",
"|  c #D4D4D4",
" . c #D7D8D8",
".. c #D9D3D0",
"X. c #DBDBDB",
"o. c #DFE0E0",
"O. c #E1CCC4",
"+. c #E1D1CA",
"@. c #E1D8D4",
"#. c #E1DDDC",
"$. c #F1DCD4",
"%. c #E2E2E2",
"&. c #E7E8E8",
"*. c #EAEAEA",
"=. c #EFF0F0",
"-. c #F1E9E5",
";. c #F6EEEB",
":. c #F3F3F3",
">. c #FDFDFD",
",. c None",
/* pixels */
",.,.,.,.,.+ + @ # & ; h j k k k j h g ; = # @ @ + + + ,.,.,.,.,.",
",.,.,.  $ $ $ h c ) _ ' ' ' ` _ ( c x x x z z h * + +           ",
",.,.  # # % c x x x x x x x z k k k k k k k l z g O X           ",
",.  + + # ( x  .%.%.%.%.%.%.o.o.o.o.%.%.%.o.%.&.X.) &.=.=.=.=.- ",
",.o o @ k _ z X.%. .' X.| |  .]  ._  .]  . .| _ _ _ &.=.=.;.=.= ",
"  . O # ( ) z  .%.X.X.o. .X. . . . .%. .%.o.%.X. ._ &.=.=.:.=.= ",
"  . + % _ ) z  .%. . .X.) ( ( ( ) ( ) )  .o.o. . ._ *.:.:.:.:.= ",
"    + - ) ) l  .%.X.' _ ) X.%.X.o. . ._ _ ( ( ) _ ' &.:.:.:.:.= ",
"    + - ( c l  .%.| ) ) c ( ) ) | _  ._ | ) _ c c ' *.:.:.=.:.= ",
"    + % ( c l  .%. ._ X._ ) ) ( ) c _ ( | X.o.X. .X.*.:.:.>.:.= ",
"    + # c c k  .%. . .#.X.%.%.X.X. . ._ _ _ ] o.*.>.:.>.:.:.>.= ",
"    O # z c k  .@.i C %.X.X.X.@.A y d T o.X.] ( Z d p R $.>.:.= ",
"      + & x j  .{ > 8 %.X.%.#.6 : < > : V %.X.9 : > 4 < r :.>.= ",
"      + @ ; k  .O.> 8 %. .X.n : e | O.1 < } P > 4 Y %.;./ >.:.= ",
"        + @ &  .+.> 8 %. .X.e > P  .%.8 : I a : d o.] -.;.:.>.= ",
",.        O O c Q > w %.%.%.q > O.%.&.a > D y : W *.5 > , >.:.= ",
",.,.X          .[ : 8 ] `  .9 : D #.&.q : T d : s =.L 6 > >.>.* ",
",.,.+ + o .   ) [ : 7 J N H M : 5 G A , 2 #.O.> 1 E { 0 > >.>.= ",
",.  + # % # o ` +.: > : > 4 X.u : > : 1 T %.o.n , , > : 4 >.>.* ",
"  $ # % x k % ( ] N m J N K  .` Q v I ..&.o.o. .{ W S T >.:.>.= ",
"  . O $ _ ` x X.%. .` | ] | ` ] | X.*.&.&.*.&.%.&.=. .o.:.:.>.= ",
"    + # _ | x %.*.&.%.*.%.%.&.%.*.%.;.%.*.*.&.X.%.*.` %.:.:.:.= ",
"    + # |  .c o.=.*.o.*.*.*.*.&.&.%.*.&.*.%.o. .X.X._ &.=.*.;.* ",
"    + # ]  .c %.=.%.o.*.%.&.*.%.&.#.&.#.&.%.X.| _ )  .%.%.%.(   ",
"    + # ] o.c %.=.&.X.;.%.&.&.%.&.%.*.#.&.%.X.( x x ) ` X.( .   ",
"    + @ = k l %.=.&.*.:.*.=.=.&.*.&.=.&.&.%._ c x ;.:.o.( X   ,.",
"    X + + + + c |  . .%.%.%.&.%.&.X.%._ _ ) ) ` x >.o.( O     ,.",
"            . )  .] ( _ ) ) ) ) ) ( _ ` X.#.#.` c %.( @     ,.,.",
",.    ,.,.    %.:.&.%.=.&.*.&.%.*.%.:.%.*.%.X.) _ ( O     ,.,.,.",
",.,.,.,.,.    %.:.*.%.=.&.*.*.%.*.&.=.%.*.%.X._ c X     ,.,.,.,.",
",.,.,.,.,.    %.:.:.:.:.:.>.:.>.:.>.:.>.:.=.=.( .     ,.,.,.,.,.",
",.,.,.,.,.                                        ,.,.,.,.,.,.,."
};
