/* XPM */
static char *startsyslog-16[] = {
/* columns rows colors chars-per-pixel */
"16 16 170 2",
"   c black",
".  c gray4",
"X  c gray5",
"o  c gray7",
"O  c #161616",
"+  c gray9",
"@  c gray13",
"#  c #2C2C2C",
"$  c #2D2D2D",
"%  c #2F2F2F",
"&  c #313131",
"*  c #323232",
"=  c gray20",
"-  c gray22",
";  c #3C3C3C",
":  c #3F3F3F",
">  c gray25",
",  c #414141",
"<  c #434343",
"1  c #444444",
"2  c gray27",
"3  c gray28",
"4  c #484848",
"5  c gray29",
"6  c gray30",
"7  c #4E4E4E",
"8  c #565656",
"9  c #C16844",
"0  c #C16B48",
"q  c #C67757",
"w  c #C17658",
"e  c #D77147",
"r  c #D07652",
"t  c #D07A57",
"y  c #DC7C56",
"u  c #C67D60",
"i  c #C48064",
"p  c #C8927D",
"a  c #D08263",
"s  c #DE8B69",
"d  c #DF8D6D",
"f  c #D28E73",
"g  c #D58F72",
"h  c #D59176",
"j  c #E2987A",
"k  c #939393",
"l  c #959595",
"z  c gray60",
"x  c #9A9A9A",
"c  c #9C9D9D",
"v  c gray64",
"b  c #A5A5A5",
"n  c gray66",
"m  c #AFB0B0",
"M  c gray69",
"N  c gray70",
"B  c #B4B4B4",
"V  c #B6B6B6",
"C  c #B7B7B7",
"Z  c #B9B9B9",
"A  c #BBBBBB",
"S  c #BCBCBC",
"D  c gray74",
"F  c #BDBEBE",
"G  c gray",
"H  c gray75",
"J  c #D79F88",
"K  c #D79F89",
"L  c #DA9F86",
"P  c #CAAB9F",
"I  c #D8AA98",
"U  c #D9AB98",
"Y  c #DBAF9E",
"T  c #DBB2A1",
"R  c #D8BAAE",
"E  c #D0BBB2",
"W  c #D0BFB8",
"Q  c #DDBEB2",
"!  c #E8AE97",
"~  c #E9B39E",
"^  c #D4C1B9",
"/  c #E8C1B2",
"(  c #C0C0C0",
")  c #C1C1C1",
"_  c gray76",
"`  c #C3C3C3",
"'  c #C3C4C4",
"]  c #C5C5C5",
"[  c #C5C6C6",
"{  c #C6C7C7",
"}  c gray78",
"|  c #C8C8C8",
" . c #C8C9C9",
".. c gray79",
"X. c #C9CACA",
"o. c #CACACA",
"O. c #CBCBCB",
"+. c #CBCBCC",
"@. c gray80",
"#. c #CCCDCD",
"$. c #CDCDCD",
"%. c #CDCECE",
"&. c #CDCFCF",
"*. c #CECECE",
"=. c gray81",
"-. c #CFD0D0",
";. c #D2C9C6",
":. c #D0CDCB",
">. c #DDC8C0",
",. c #D9D2CE",
"<. c #D0D1D1",
"1. c gray82",
"2. c #D1D2D2",
"3. c #D2D2D2",
"4. c LightGray",
"5. c gray83",
"6. c #D5D5D5",
"7. c #D7D5D4",
"8. c gray84",
"9. c #D6D7D7",
"0. c #D7D7D7",
"q. c #D7D8D8",
"w. c #DFD8D6",
"e. c #D8D9D9",
"r. c gray85",
"t. c #D9DADA",
"y. c gray86",
"u. c #DBDCDC",
"i. c gainsboro",
"p. c #DDDDDD",
"a. c #DDDEDE",
"s. c gray87",
"d. c #DEDFDF",
"f. c #EFCFC2",
"g. c #F2D1C4",
"h. c #F3DCD1",
"j. c #F0DED7",
"k. c #F1DED7",
"l. c #E8E2DF",
"z. c #E0E1E1",
"x. c #E1E1E1",
"c. c #E2E2E2",
"v. c gray89",
"b. c #E4E4E4",
"n. c #E6E6E6",
"m. c #E6E7E7",
"M. c #E7E7E7",
"N. c #EEE7E5",
"B. c gray91",
"V. c #E9E9E9",
"C. c #EAEAEA",
"Z. c gray92",
"A. c #EBECEC",
"S. c #ECECEC",
"D. c gray93",
"F. c #EEEEEE",
"G. c #EFEFEF",
"H. c #EFF0F0",
"J. c gray94",
"K. c #F0F1F1",
"L. c gray95",
"P. c #F2F3F3",
"I. c #F4F4F4",
"U. c gray96",
"Y. c #F6F6F6",
"T. c gray97",
"R. c #F8F8F8",
"E. c #F9F9F9",
"W. c gray100",
"Q. c None",
/* pixels */
"Q.= < : > 3 5 5 5 4 < = Q.Q.Q.Q.",
"Q.< v B #.@.#.[ [ [ A m @.-.@.n ",
"% v @.' c.z.z.i.9.i.i.8.A.K.K.2.",
"= _ .._ i.t.u.i.8.i.t.2.Z.P.K.2.",
"- _ _ A #...@.@...:.2.M.K.U.U.2.",
"% M H A ,.8.y.i.;.:.i.M.N.k.T.4.",
"O x B A f R c.U a t W I e d f.8.",
"X 6 B _ h Q M.r w.T J 9 j.~ h.8.",
"Q.O = x u P 5.q >.K Y w / j ! 8.",
"; 1 1 c p 0 u E g L l.W s y f.8.",
"6 [ @.} Z.M.Z.S.b.b.Z.2.U.T.R.5.",
"8 2.0.+.D.Z.J.F.b.Z.c.8.F.K.K.B ",
"6 2.t.@.K.K.K.K.Z.Z.8.b.:.c._   ",
"@ # % k 2.:.2.4...8.b.c.i.S o Q.",
"Q.Q.Q._ U.K.U.T.D.U.K.b.Z . Q.Q.",
"Q.Q.Q.l O...O...[ ....M   Q.Q.Q."
};
