/* XPM */
static char *startsyslog[] = {
/* columns rows colors chars-per-pixel */
"32 32 114 2",
"   c black",
".  c gray4",
"X  c #151515",
"o  c #1B1B1B",
"O  c #252525",
"+  c #2C2C2C",
"@  c #333333",
"#  c #3C3C3C",
"$  c #424242",
"%  c #4C4C4C",
"&  c #545454",
"*  c #5A5A5A",
"=  c #777777",
"-  c #797979",
";  c #B04316",
":  c #B74A1E",
">  c #BC4616",
",  c #BB6847",
"<  c #B36C50",
"1  c #BC7355",
"2  c #BE785D",
"3  c #C24513",
"4  c #CE4913",
"5  c #D04C17",
"6  c #D04E19",
"7  c #C5582C",
"8  c #CB5E32",
"9  c #D25523",
"0  c #D45D2E",
"q  c #D35F30",
"w  c #CD6035",
"e  c #D46133",
"r  c #D66538",
"t  c #CD6A41",
"y  c #CE6E48",
"u  c #CE714B",
"i  c #CC7653",
"p  c #CC7A58",
"a  c #D47149",
"s  c #D27D5B",
"d  c #DB7952",
"f  c #BD8F7D",
"g  c #C08A73",
"h  c #CD937D",
"j  c #D08061",
"k  c #D2896C",
"l  c #DF8D6D",
"z  c #D19075",
"x  c #E19678",
"c  c #8B8B8B",
"v  c #939393",
"b  c #9A9A9A",
"n  c #BEA298",
"m  c #A4A4A4",
"M  c gray67",
"N  c #B3B3B3",
"B  c #BBBBBB",
"V  c #BFC0C0",
"C  c #CB9681",
"Z  c #D39A82",
"A  c #C3A79B",
"S  c #C4A99E",
"D  c #DAA48F",
"F  c #D6A895",
"G  c #DEA792",
"H  c #C7ACA1",
"J  c #C2AFA8",
"K  c #CAAEA4",
"L  c #CDB2A7",
"P  c #C9B7AF",
"I  c #CFBCB5",
"U  c #D1B1A4",
"Y  c #DEB3A1",
"T  c #DCB9AB",
"R  c #D9BEB2",
"E  c #E5A990",
"W  c #E5B9A6",
"Q  c #EBBCA9",
"!  c #DDC1B6",
"~  c #DDC5BA",
"^  c #E0C5B9",
"/  c #E4C8BE",
"(  c #EDC1B0",
")  c #EFCCBE",
"_  c #C4C4C4",
"`  c #CBCBCB",
"'  c #CFD0D0",
"]  c #D1CBC8",
"[  c #DDCBC4",
"{  c #DFD1CB",
"}  c #D3D3D3",
"|  c #D7D8D8",
" . c #DCD6D3",
".. c #DADBDB",
"X. c #DFDFE0",
"o. c #DFE0E0",
"O. c #E3D0C9",
"+. c #EFD0C3",
"@. c #E9D4CC",
"#. c #E0DDDC",
"$. c #EEDED8",
"%. c #F2DACF",
"&. c #E3E0DF",
"*. c #F3E4DD",
"=. c #E3E3E3",
"-. c #E7E8E8",
";. c #EBEBEB",
":. c #EFF0F0",
">. c #F5E8E3",
",. c #F6EEEB",
"<. c #F7F0ED",
"1. c #F3F3F3",
"2. c #FDFDFD",
"3. c None",
/* pixels */
"3.3.3.3.3.3.@ # $ % % % % % % % % % % % % $ 3.3.3.3.3.3.3.3.3.3.",
"3.3.3.O $ $ % $ $ % & * * * * * * * & * % # @                   ",
"3.3.@ $ % = M M M N N N N N M b b b b b b % O                   ",
"3.  # & _ ` m X.o.=.=.=.=.=...o.o.o.o.=.=.' ` :.1.;.1.;.:.;.1.$ ",
"3.@ % N ` _ m =.=.o.| =.......| ....o.....' ` o.-.;.:.:.1.1.;.# ",
"  @ c ` ` _ b =.=.| ..o.| ....| ..| o.| =.' _ o.=.:.1.:.1.;.1.# ",
"O # M ` ` _ m ..=...| ..........| ..o.=.-.` _ ..=.1.:.1.1.1.:.# ",
"+ # N _ _ _ b =.=.} ` ..} | | } } } ..} .._ _ ..=.1.1.1.1.1.1.# ",
"+ $ B _ _ B b ..` B N _ B _ B B V B V B V I } | =.1.1.1.1.1.1.# ",
"O $ B _ _ _ b | ` ` ` } ` ' ` ` ' } ..| ..=.;.-.;.1.1.1.2.1.1.# ",
"o $ N _ _ N b ...._ _ ' ` ` ] _ ` ` ' ' :.;.-.=.-.1.2.1.2.1.1.# ",
"o # N N B N v ..{ Z L o.....=.#.F z Z P ' ..;...Y x l E *.2.1.# ",
"X @ b N N N v ..! 8 h o.| =.#.y 8 t 8 w K _ #.a 4 4 r 6 l 2.1.# ",
"  O * N N N c ..! 8 Z =.| X.Z 8 C ..~ w y ` C 4 a *.2.,.+.1.1.# ",
"  X @ v B N b =.^ w Z -.=.=.p 8 [ =.-.p 8 { 1 4 W 2.,.,.<.1.2.# ",
"3.  o # c N b =.^ w Z -.=.=.y w =.=.-.k 8 ~ , 3 @.1.9 4 r 2.1.# ",
"3.3.  o O % & | R 7 h ......p 8 ! =.=.u 8  .p 3 G 2.+.0 q 2.1.# ",
"3.3.3.  X o X V A ; < A n J f : j ~ G w s #.n : q W >.q q 2.2.# ",
"3.@ + @ + O . X.R 3 3 3 3 i  .1 8 8 w u O.=.` g 5 5 4 5 d 2.1.# ",
"+ $ % % & % $ ` ] H H K K I } } O.T / =.;.-.} ' $.Q Q %.2.1.2.# ",
"@ * B B _ I b o.;.=.=.;.=.-.=.-.-.-.,.=.;.-.] ' ;.2.2.1.1.2.1.# ",
"+ = ' } } ' M -.;.-.&.;.;.;.;.;.-.=.;.-.;.=.` ` -.1.1.1.1.1.1.# ",
"+ = } } | } M -.:.-.#.:.-.-.;.=.=.=.;.=.;..._ } =.1.:.;.;.;.:.@ ",
"+ = } | ..| N ;.:.-.#.:.-.;.-.=.-.=.-.=.;.` _ | #.-.-.=.=.=.B   ",
"+ = | | ..| N ;.1.-.-.1.:.1.1.;.,.-.;.;...` | =..._ ` ' | N     ",
"O * ` } | } M -.1.-.-.1.;.;.;.-.-.-.;.} ` } =.| B 2.1.#.B .   3.",
"o O # # $ # @ ` } ` _ ' ` ' ' ` ` ` ` _ } =.#.} N 1.#.B o   3.3.",
"  o o o o o X ] ..] _ | ] ' ' ` ] ` | | ;.=.| ` _ #.V O     3.3.",
"3.    3.3.    ;.2.=.=.1.-.;.;.-.-.-.:.-.;.=..._ } B X     3.3.3.",
"3.3.3.3.3.    :.1.;.-.1.;.1.1.;.:.:.1.;.;.-.=.} N .     3.3.3.3.",
"3.3.3.3.3.    ;.1.;.;.1.;.1.1.:.:.:.1.:.1.-.=.N     3.3.3.3.3.3.",
"3.3.3.3.3.                                        3.3.3.3.3.3.3."
};
